<svg xmlns:xlink="http://www.w3.org/1999/xlink" xmlns="http://www.w3.org/2000/svg" viewBox="0 0 256 256" focusable="false" color="var(--token-5afbb393-f5f6-4e8a-a267-062523956801, rgb(169, 237, 66))" style="user-select: none; width: 100%; height: 100%; display: inline-block; fill: var(--token-5afbb393-f5f6-4e8a-a267-062523956801, rgb(169, 237, 66)); color: var(--token-5afbb393-f5f6-4e8a-a267-062523956801, rgb(169, 237, 66)); flex-shrink: 0;" width="256"  height="256" ><g color="var(--token-5afbb393-f5f6-4e8a-a267-062523956801, rgb(169, 237, 66))" weight="fill" fill="#A9ED42"><path d="M208,144a15.78,15.78,0,0,1-10.42,14.94L146,178l-19,51.62a15.92,15.92,0,0,1-29.88,0L78,178l-51.62-19a15.92,15.92,0,0,1,0-29.88L78,110l19-51.62a15.92,15.92,0,0,1,29.88,0L146,110l51.62,19A15.78,15.78,0,0,1,208,144ZM152,48h16V64a8,8,0,0,0,16,0V48h16a8,8,0,0,0,0-16H184V16a8,8,0,0,0-16,0V32H152a8,8,0,0,0,0,16Zm88,32h-8V72a8,8,0,0,0-16,0v8h-8a8,8,0,0,0,0,16h8v8a8,8,0,0,0,16,0V96h8a8,8,0,0,0,0-16Z" fill="#A9ED42"></path></g></svg>