<svg xmlns:xlink="http://www.w3.org/1999/xlink" xmlns="http://www.w3.org/2000/svg" viewBox="0 0 138 71" id="svg11692656819" width="138"  height="71" ><path d="M 15.093 2.504 C 10.111 2.504 4.866 9.409 3.622 13.936 C 1.583 21.353 1.865 29.763 2.396 37.387 C 2.942 45.217 6.058 54.867 13.23 59.128 C 18.864 62.475 28.643 63.551 35.045 62.108 C 41.261 60.707 47.98 55.498 50.291 49.601 C 51.883 45.539 51.976 39.376 49.164 35.872 C 47.14 33.351 41.362 32.762 39.016 34.945 C 35.541 38.176 32.578 42.487 31.957 47.305 C 30.98 54.879 32.343 59.722 38.967 64.013 C 47.526 69.558 61.108 69.867 70.243 66.114 C 80.467 61.914 91.319 53.518 96.323 43.543 C 98.614 38.978 99.752 34.057 100.147 28.984 C 100.374 26.069 100.846 22.283 99.167 19.701 C 96.42 15.477 90.348 14.566 86.568 18.333 C 83.062 21.827 82.577 27.862 83.92 32.452 C 84.987 36.097 89.378 38.98 92.5 40.758 C 96.527 43.051 101.977 43.426 106.52 43.396 C 119.669 43.309 129.028 30.234 135.982 20.532" fill="#000000" stroke-width="3.11px" stroke="#A9ED42" stroke-linecap="round" stroke-miterlimit="10" fill-opacity="0"></path></svg>