<svg viewBox="0 0 287 94" xmlns:xlink="http://www.w3.org/1999/xlink" xmlns="http://www.w3.org/2000/svg" width="287" height="94" fill="none"><path fill="#000" d="M83.692 47.045c0-4.278.985-8.115 2.957-11.512 2.013-3.397 4.718-6.04 8.115-7.926 3.439-1.93 7.192-2.894 11.26-2.894 4.655 0 8.786 1.153 12.393 3.46 3.649 2.265 6.291 5.494 7.926 9.688h-8.618c-1.132-2.307-2.705-4.026-4.718-5.159-2.013-1.132-4.341-1.698-6.983-1.698-2.894 0-5.473.65-7.738 1.95-2.264 1.3-4.047 3.166-5.347 5.599-1.258 2.432-1.887 5.263-1.887 8.492 0 3.23.63 6.06 1.887 8.493 1.3 2.432 3.083 4.32 5.347 5.661 2.265 1.3 4.844 1.95 7.738 1.95 2.642 0 4.97-.566 6.983-1.698 2.013-1.132 3.586-2.852 4.718-5.158h8.618c-1.635 4.194-4.277 7.423-7.926 9.687-3.607 2.265-7.738 3.397-12.393 3.397-4.11 0-7.863-.943-11.26-2.83-3.397-1.93-6.102-4.593-8.115-7.99-1.972-3.397-2.957-7.234-2.957-11.512Zm58.217-24.597V69h-7.171V22.448h7.171Zm24.45 47.118c-3.271 0-6.227-.734-8.87-2.202-2.642-1.51-4.718-3.606-6.227-6.29-1.51-2.726-2.265-5.872-2.265-9.436 0-3.523.776-6.648 2.328-9.374 1.551-2.726 3.669-4.823 6.353-6.29 2.684-1.468 5.683-2.202 8.996-2.202 3.313 0 6.312.734 8.996 2.201 2.684 1.468 4.802 3.565 6.354 6.291 1.551 2.726 2.327 5.85 2.327 9.373 0 3.523-.797 6.648-2.39 9.374a16.72 16.72 0 0 1-6.543 6.353c-2.726 1.468-5.745 2.202-9.059 2.202Zm0-6.228c1.846 0 3.565-.44 5.159-1.32 1.636-.882 2.957-2.203 3.963-3.964 1.007-1.761 1.51-3.9 1.51-6.416 0-2.517-.482-4.635-1.447-6.354-.965-1.762-2.244-3.083-3.837-3.963a10.496 10.496 0 0 0-5.159-1.322c-1.845 0-3.565.44-5.158 1.322-1.552.88-2.789 2.201-3.712 3.963-.922 1.72-1.384 3.837-1.384 6.354 0 3.732.944 6.626 2.831 8.68 1.929 2.014 4.341 3.02 7.234 3.02Zm38.481-.755 9.813-28.245h7.612L209.055 69h-8.556l-13.147-34.662h7.674l9.814 28.245Zm54.615-11.763c0 1.3-.084 2.474-.252 3.523h-26.484c.21 2.767 1.237 4.99 3.082 6.668 1.846 1.677 4.11 2.516 6.794 2.516 3.859 0 6.585-1.615 8.178-4.844h7.738c-1.048 3.188-2.957 5.809-5.725 7.864-2.726 2.013-6.123 3.02-10.191 3.02-3.313 0-6.29-.735-8.933-2.203-2.6-1.51-4.655-3.606-6.165-6.29-1.467-2.726-2.201-5.872-2.201-9.436 0-3.565.713-6.69 2.139-9.374 1.467-2.726 3.501-4.823 6.102-6.29 2.642-1.468 5.661-2.202 9.058-2.202 3.272 0 6.186.713 8.745 2.139 2.558 1.425 4.55 3.438 5.976 6.039 1.426 2.558 2.139 5.515 2.139 8.87Zm-7.486-2.265c-.042-2.642-.986-4.76-2.831-6.354-1.846-1.593-4.131-2.39-6.857-2.39-2.475 0-4.592.797-6.354 2.39-1.761 1.552-2.81 3.67-3.145 6.354h19.187Zm21.715-9.184c1.048-1.762 2.432-3.125 4.151-4.09 1.762-1.006 3.838-1.51 6.228-1.51v7.424h-1.824c-2.81 0-4.949.713-6.417 2.139-1.426 1.426-2.138 3.9-2.138 7.423V69h-7.172V34.338h7.172v5.032Z"/><path fill="url(#a)" d="M63.747 42.678c0 7.213-1.912 11.704-5.715 13.346a8.7 8.7 0 0 1-3.506.679c-.9-.009-1.797-.108-2.677-.297a1.291 1.291 0 0 1-.803-.523 117.46 117.46 0 0 0-15.22-17.613 2.55 2.55 0 0 0-3.506 3.704c4.73 4.434 20.44 20.236 24.963 38.334a2.55 2.55 0 0 1-2.46 3.168 2.55 2.55 0 0 1-2.47-1.931c-1.314-5.25-3.714-10.353-6.522-15.01a8.255 8.255 0 0 1-.606 2.299c-1.648 3.805-6.138 5.718-13.351 5.718-7.213 0-11.704-1.913-13.35-5.718-1.736-4.01-.123-9.824 4.782-17.279.217-.319.433-.637.637-.956l-.956.637c-5.507 3.64-10.126 5.467-13.779 5.467a8.7 8.7 0 0 1-3.506-.68C1.912 54.384 0 49.892 0 42.679c0-7.213 1.912-11.704 5.715-13.348 4.013-1.737 9.827-.125 17.282 4.78l.956.638-.637-.956c-4.912-7.455-6.525-13.27-4.781-17.282 1.635-3.793 6.126-5.705 13.339-5.705s11.704 1.912 13.348 5.715c1.737 4.012.124 9.826-4.78 17.281-.213.326-.426.644-.638.957l.956-.638c7.455-4.911 13.269-6.524 17.282-4.78 3.793 1.634 5.705 6.125 5.705 13.338Z"/><defs><linearGradient id="a" x1="31.874" x2="31.874" y1="10.805" y2="83.476" gradientUnits="userSpaceOnUse"><stop stop-color="#6BA23B"/><stop offset="1" stop-color="#B2C255"/></linearGradient></defs></svg>