<svg xmlns:xlink="http://www.w3.org/1999/xlink" xmlns="http://www.w3.org/2000/svg" focusable="false" viewBox="0 0 24 24" color="var(--token-162cc6f1-5b31-4c9d-a955-3d5570248c76, rgb(29, 31, 19))" style="user-select: none; width: 100%; height: 100%; display: inline-block; fill: var(--token-162cc6f1-5b31-4c9d-a955-3d5570248c76, rgb(29, 31, 19)); flex-shrink: 0;" width="35"  height="35" ><path d="M18 8h-1V6c0-2.76-2.24-5-5-5S7 3.24 7 6v2H6c-1.1 0-2 .9-2 2v10c0 1.1.9 2 2 2h12c1.1 0 2-.9 2-2V10c0-1.1-.9-2-2-2zm-6 9c-1.1 0-2-.9-2-2s.9-2 2-2 2 .9 2 2-.9 2-2 2zm3.1-9H8.9V6c0-1.71 1.39-3.1 3.1-3.1 1.71 0 3.1 1.39 3.1 3.1v2z" fill="#1D1F13"></path></svg>