<svg xmlns:xlink="http://www.w3.org/1999/xlink" xmlns="http://www.w3.org/2000/svg" viewBox="0 0 256 256" focusable="false" color="var(--token-5afbb393-f5f6-4e8a-a267-062523956801, rgb(169, 237, 66))" style="user-select: none; width: 100%; height: 100%; display: inline-block; fill: var(--token-5afbb393-f5f6-4e8a-a267-062523956801, rgb(169, 237, 66)); color: var(--token-5afbb393-f5f6-4e8a-a267-062523956801, rgb(169, 237, 66)); flex-shrink: 0;" width="256"  height="256" ><g color="var(--token-5afbb393-f5f6-4e8a-a267-062523956801, rgb(169, 237, 66))" weight="fill" fill="#A9ED42"><path d="M223.68,66.15,135.68,18a15.88,15.88,0,0,0-15.36,0l-88,48.17a16,16,0,0,0-8.32,14v95.64a16,16,0,0,0,8.32,14l88,48.17a15.88,15.88,0,0,0,15.36,0l88-48.17a16,16,0,0,0,8.32-14V80.18A16,16,0,0,0,223.68,66.15ZM128,120,47.65,76,128,32l80.35,44Zm8,99.64V133.83l80-43.78v85.76Z" fill="#A9ED42"></path></g></svg>