<svg xmlns:xlink="http://www.w3.org/1999/xlink" xmlns="http://www.w3.org/2000/svg" viewBox="0 0 256 256" focusable="false" color="var(--token-5afbb393-f5f6-4e8a-a267-062523956801, rgb(169, 237, 66))" style="user-select: none; width: 100%; height: 100%; display: inline-block; fill: var(--token-5afbb393-f5f6-4e8a-a267-062523956801, rgb(169, 237, 66)); color: var(--token-5afbb393-f5f6-4e8a-a267-062523956801, rgb(169, 237, 66)); flex-shrink: 0;" width="256"  height="256" ><g color="var(--token-5afbb393-f5f6-4e8a-a267-062523956801, rgb(169, 237, 66))" weight="fill" fill="#A9ED42"><path d="M128,24A104,104,0,1,0,232,128,104.11,104.11,0,0,0,128,24Zm0,168a12,12,0,1,1,12-12A12,12,0,0,1,128,192Zm8-48.72V144a8,8,0,0,1-16,0v-8a8,8,0,0,1,8-8c13.23,0,24-9,24-20s-10.77-20-24-20-24,9-24,20v4a8,8,0,0,1-16,0v-4c0-19.85,17.94-36,40-36s40,16.15,40,36C168,125.38,154.24,139.93,136,143.28Z" fill="#A9ED42"></path></g></svg>