<svg xmlns="http://www.w3.org/2000/svg" width="1246" height="586" fill="none"><g filter="url(#a)"><path fill="#fff" fill-rule="evenodd" d="M48 62c0-7.732 6.268-14 14-14h1110c7.73 0 14 6.268 14 14v450c0 7.732-6.27 14-14 14H62c-7.732 0-14-6.268-14-14V62Z" clip-rule="evenodd"/></g><path fill="#282D32" d="M675.216 478.72h4.928c1.205 0 2.144.304 2.816.912.672.597 1.008 1.44 1.008 2.528s-.336 1.936-1.008 2.544c-.672.608-1.611.912-2.816.912h-2.864V490h-2.064v-11.28Zm4.672 5.312c1.419 0 2.128-.619 2.128-1.856 0-.629-.176-1.093-.528-1.392-.352-.309-.885-.464-1.6-.464h-2.608v3.712h2.608Zm10.71-.384-1.168.112c-1.322.139-1.984.811-1.984 2.016V490h-2v-7.824h1.904v1.376c.406-.939 1.243-1.451 2.512-1.536l.608-.048.128 1.68Zm4.385 6.48c-.8 0-1.504-.165-2.112-.496a3.45 3.45 0 0 1-1.392-1.424c-.331-.619-.496-1.339-.496-2.16 0-.821.165-1.536.496-2.144a3.45 3.45 0 0 1 1.392-1.424c.608-.331 1.312-.496 2.112-.496s1.499.165 2.096.496a3.322 3.322 0 0 1 1.392 1.424c.331.608.496 1.323.496 2.144 0 .821-.165 1.541-.496 2.16a3.322 3.322 0 0 1-1.392 1.424c-.597.331-1.296.496-2.096.496Zm-.016-1.552c.651 0 1.147-.213 1.488-.64.341-.427.512-1.056.512-1.888 0-.821-.171-1.445-.512-1.872-.341-.437-.832-.656-1.472-.656s-1.136.219-1.488.656c-.341.427-.512 1.051-.512 1.872 0 .832.171 1.461.512 1.888.341.427.832.64 1.472.64Zm11.204-10.048h2.24v2h-2.24v-2Zm-3.056 3.648h5.168V490h-2v-6.32h-3.168V490h-2v-6.32h-1.504v-1.504h1.504c0-1.131.299-1.979.896-2.544.598-.576 1.499-.891 2.704-.944l.688-.032.096 1.488-.752.032c-.597.032-1.018.181-1.264.448-.245.256-.368.645-.368 1.168v.384Zm11.253 6.448c.235 0 .48-.016.736-.048l-.096 1.488c-.32.032-.613.048-.88.048-1.099 0-1.909-.251-2.432-.752-.523-.512-.784-1.269-.784-2.272v-3.408h-1.504v-1.504h1.504v-2.336h2v2.336h2.064v1.504h-2.064v3.376c0 1.045.485 1.568 1.456 1.568Z"/><path fill="#122009" fill-rule="evenodd" d="M652 490a6 6 0 1 0 0-12 6 6 0 0 0 0 12Z" clip-rule="evenodd"/><path fill="#282D32" d="M552.04 490.144a8.162 8.162 0 0 1-2.432-.352c-.757-.235-1.397-.565-1.92-.992l.688-1.504c.544.416 1.115.72 1.712.912a6.502 6.502 0 0 0 1.968.288c.779 0 1.376-.133 1.792-.4.427-.277.64-.661.64-1.152 0-.427-.197-.752-.592-.976-.384-.224-1.029-.437-1.936-.64-.939-.203-1.701-.437-2.288-.704-.587-.267-1.029-.608-1.328-1.024-.299-.416-.448-.944-.448-1.584 0-.661.181-1.253.544-1.776.363-.523.875-.928 1.536-1.216.661-.299 1.424-.448 2.288-.448.789 0 1.541.123 2.256.368.715.235 1.301.56 1.76.976l-.688 1.504c-1.003-.8-2.112-1.2-3.328-1.2-.725 0-1.301.149-1.728.448-.416.288-.624.693-.624 1.216 0 .437.187.773.56 1.008.373.235 1.008.453 1.904.656.949.213 1.717.453 2.304.72.597.256 1.051.587 1.36.992.32.405.48.917.48 1.536 0 .672-.181 1.264-.544 1.776-.352.501-.869.891-1.552 1.168-.672.267-1.467.4-2.384.4Zm9.563-8.16c1.099 0 1.915.267 2.448.8.533.533.8 1.355.8 2.464V490h-1.904v-1.2a2.074 2.074 0 0 1-.864.976c-.384.235-.832.352-1.344.352-.523 0-.997-.107-1.424-.32a2.529 2.529 0 0 1-1.008-.88 2.225 2.225 0 0 1-.368-1.248c0-.576.144-1.029.432-1.36.299-.331.779-.571 1.44-.72.661-.149 1.573-.224 2.736-.224h.4v-.368c0-.533-.117-.917-.352-1.152-.224-.235-.603-.352-1.136-.352-.416 0-.853.075-1.312.224a6.348 6.348 0 0 0-1.328.592l-.56-1.376c.437-.277.965-.507 1.584-.688a6.274 6.274 0 0 1 1.76-.272Zm-.464 6.704c.533 0 .965-.176 1.296-.528.341-.363.512-.827.512-1.392v-.336h-.288c-.715 0-1.269.032-1.664.096s-.677.176-.848.336c-.171.16-.256.379-.256.656 0 .341.117.624.352.848.235.213.533.32.896.32Zm5.745 1.312v-11.28h2V490h-2Zm10.926-3.552h-5.328c.064.725.283 1.264.656 1.616.374.352.907.528 1.6.528.864 0 1.654-.277 2.368-.832l.576 1.376c-.362.299-.821.539-1.376.72a5.19 5.19 0 0 1-1.648.272c-1.28 0-2.293-.363-3.04-1.088-.736-.725-1.104-1.717-1.104-2.976 0-.8.16-1.509.48-2.128a3.502 3.502 0 0 1 1.344-1.44c.587-.341 1.248-.512 1.984-.512 1.078 0 1.926.347 2.544 1.04.63.693.944 1.648.944 2.864v.56Zm-3.44-3.056c-.533 0-.965.171-1.296.512-.32.341-.517.832-.592 1.472h3.616c-.021-.651-.181-1.141-.48-1.472-.298-.341-.714-.512-1.248-.512Zm7.956 6.736a6.843 6.843 0 0 1-1.92-.256 4.346 4.346 0 0 1-1.472-.736l.56-1.392c.832.608 1.787.912 2.864.912.459 0 .806-.075 1.04-.224a.708.708 0 0 0 .368-.64.639.639 0 0 0-.256-.544c-.16-.128-.453-.245-.88-.352l-1.28-.288c-.725-.16-1.264-.421-1.616-.784-.352-.363-.528-.832-.528-1.408 0-.48.134-.901.4-1.264a2.682 2.682 0 0 1 1.136-.864c.491-.203 1.056-.304 1.696-.304.555 0 1.088.085 1.6.256.523.171.982.411 1.376.72l-.56 1.36c-.81-.587-1.621-.88-2.432-.88-.437 0-.778.08-1.024.24a.76.76 0 0 0-.368.672c0 .213.075.389.224.528.16.139.411.245.752.32l1.328.304c.779.171 1.35.443 1.712.816.363.363.544.843.544 1.44 0 .725-.293 1.301-.88 1.728-.586.427-1.381.64-2.384.64Z"/><path fill="#CBF98A" fill-rule="evenodd" d="M525 490a6 6 0 1 0 0-12 6 6 0 0 0 0 12Z" clip-rule="evenodd"/><path fill="#2B3034" fill-opacity=".4" d="M759.021 430.264v.984h-1.236V433h-1.212v-1.752h-3.804v-.924l4.008-5.784h1.008v5.724h1.236Zm-5.04 0h2.592v-3.744l-2.592 3.744Zm9.019 2.832c-.984 0-1.736-.368-2.256-1.104-.512-.736-.768-1.808-.768-3.216 0-1.408.256-2.48.768-3.216.52-.744 1.272-1.116 2.256-1.116.984 0 1.732.368 2.244 1.104.52.736.78 1.808.78 3.216 0 1.416-.26 2.492-.78 3.228-.512.736-1.26 1.104-2.244 1.104Zm0-.996c.616 0 1.068-.268 1.356-.804.288-.536.432-1.38.432-2.532 0-1.144-.144-1.98-.432-2.508-.288-.536-.74-.804-1.356-.804-.616 0-1.068.268-1.356.804-.288.528-.432 1.364-.432 2.508s.144 1.988.432 2.532c.288.536.74.804 1.356.804Zm9.956.9h-1.536l-2.772-2.76V433h-1.212v-8.46h1.212v5.244l2.568-2.628h1.5l-2.772 2.808 3.012 3.036Zm72.065-2.736v.984h-1.236V433h-1.212v-1.752h-3.804v-.924l4.008-5.784h1.008v5.724h1.236Zm-5.04 0h2.592v-3.744l-2.592 3.744Zm9.427-2.616c.528 0 .992.112 1.392.336.4.224.708.54.924.948.224.408.336.876.336 1.404 0 .544-.124 1.024-.372 1.44-.24.416-.588.74-1.044.972-.448.224-.972.336-1.572.336-.52 0-1.036-.092-1.548-.276a3.679 3.679 0 0 1-1.26-.744l.432-.912c.76.616 1.556.924 2.388.924.56 0 .996-.148 1.308-.444.312-.304.468-.728.468-1.272 0-.52-.156-.936-.468-1.248-.312-.312-.728-.468-1.248-.468-.744 0-1.356.288-1.836.864h-.792v-4.968h5.184v.996h-3.96v2.664c.44-.368.996-.552 1.668-.552Zm9.548 5.352h-1.536l-2.772-2.76V433h-1.212v-8.46h1.212v5.244l2.568-2.628h1.5l-2.772 2.808 3.012 3.036Zm69.257-5.352c.528 0 .992.112 1.392.336.4.224.708.54.924.948.224.408.336.876.336 1.404 0 .544-.124 1.024-.372 1.44-.24.416-.588.74-1.044.972-.448.224-.972.336-1.572.336-.52 0-1.036-.092-1.548-.276a3.679 3.679 0 0 1-1.26-.744l.432-.912c.76.616 1.556.924 2.388.924.56 0 .996-.148 1.308-.444.312-.304.468-.728.468-1.272 0-.52-.156-.936-.468-1.248-.312-.312-.728-.468-1.248-.468-.744 0-1.356.288-1.836.864h-.792v-4.968h5.184v.996h-3.96v2.664c.44-.368.996-.552 1.668-.552Zm6.787 5.448c-.984 0-1.736-.368-2.256-1.104-.512-.736-.768-1.808-.768-3.216 0-1.408.256-2.48.768-3.216.52-.744 1.272-1.116 2.256-1.116.984 0 1.732.368 2.244 1.104.52.736.78 1.808.78 3.216 0 1.416-.26 2.492-.78 3.228-.512.736-1.26 1.104-2.244 1.104Zm0-.996c.616 0 1.068-.268 1.356-.804.288-.536.432-1.38.432-2.532 0-1.144-.144-1.98-.432-2.508-.288-.536-.74-.804-1.356-.804-.616 0-1.068.268-1.356.804-.288.528-.432 1.364-.432 2.508s.144 1.988.432 2.532c.288.536.74.804 1.356.804Zm9.956.9h-1.536l-2.772-2.76V433h-1.212v-8.46h1.212v5.244l2.568-2.628h1.5l-2.772 2.808 3.012 3.036Zm69.254-5.352c.53 0 1 .112 1.4.336.4.224.7.54.92.948.22.408.34.876.34 1.404 0 .544-.13 1.024-.38 1.44-.24.416-.58.74-1.04.972-.45.224-.97.336-1.57.336-.52 0-1.04-.092-1.55-.276-.5-.184-.92-.432-1.26-.744l.43-.912c.76.616 1.56.924 2.39.924.56 0 1-.148 1.31-.444.31-.304.47-.728.47-1.272 0-.52-.16-.936-.47-1.248-.31-.312-.73-.468-1.25-.468-.74 0-1.36.288-1.84.864h-.79v-4.968h5.19v.996h-3.96v2.664c.44-.368.99-.552 1.66-.552Zm7.2 0c.53 0 .99.112 1.39.336.4.224.71.54.92.948.23.408.34.876.34 1.404 0 .544-.12 1.024-.37 1.44-.24.416-.59.74-1.05.972-.44.224-.97.336-1.57.336-.52 0-1.03-.092-1.55-.276-.5-.184-.92-.432-1.26-.744l.44-.912c.76.616 1.55.924 2.38.924.56 0 1-.148 1.31-.444.31-.304.47-.728.47-1.272 0-.52-.16-.936-.47-1.248-.31-.312-.73-.468-1.25-.468-.74 0-1.35.288-1.83.864h-.79v-4.968h5.18v.996h-3.96v2.664c.44-.368 1-.552 1.67-.552Zm9.55 5.352h-1.54l-2.77-2.76V433h-1.21v-8.46h1.21v5.244l2.57-2.628h1.5l-2.78 2.808 3.02 3.036Zm69.28-5.364c.51 0 .97.116 1.36.348.4.224.71.54.92.948.23.408.34.876.34 1.404 0 .528-.12 1.004-.36 1.428-.23.416-.56.744-.99.984-.42.232-.9.348-1.42.348-1.05 0-1.86-.356-2.43-1.068-.56-.72-.84-1.744-.84-3.072 0-.944.13-1.752.4-2.424.26-.68.65-1.196 1.15-1.548.5-.36 1.1-.54 1.8-.54.5 0 .98.088 1.45.264.47.176.89.428 1.24.756l-.45.912c-.75-.616-1.48-.924-2.2-.924-.69 0-1.22.304-1.6.912-.38.6-.56 1.456-.56 2.568v.036c.17-.416.46-.74.85-.972.4-.24.85-.36 1.34-.36Zm-.21 4.452c.49 0 .89-.156 1.18-.468.3-.32.45-.74.45-1.26s-.15-.936-.46-1.248c-.29-.312-.69-.468-1.19-.468-.49 0-.9.16-1.22.48-.32.312-.48.724-.48 1.236s.16.928.47 1.248c.32.32.73.48 1.25.48Zm6.96 1.008c-.98 0-1.73-.368-2.25-1.104-.51-.736-.77-1.808-.77-3.216 0-1.408.26-2.48.77-3.216.52-.744 1.27-1.116 2.25-1.116.99 0 1.74.368 2.25 1.104.52.736.78 1.808.78 3.216 0 1.416-.26 2.492-.78 3.228-.51.736-1.26 1.104-2.25 1.104Zm0-.996c.62 0 1.07-.268 1.36-.804.29-.536.43-1.38.43-2.532 0-1.144-.14-1.98-.43-2.508-.29-.536-.74-.804-1.36-.804-.61 0-1.06.268-1.35.804-.29.528-.43 1.364-.43 2.508s.14 1.988.43 2.532c.29.536.74.804 1.35.804Zm9.96.9h-1.54l-2.77-2.76V433h-1.21v-8.46h1.21v5.244l2.57-2.628h1.5l-2.77 2.808 3.01 3.036Zm-956.639-5.352c.528 0 .992.112 1.392.336.4.224.708.54.924.948.224.408.336.876.336 1.404 0 .544-.124 1.024-.372 1.44-.24.416-.588.74-1.044.972-.448.224-.972.336-1.572.336-.52 0-1.036-.092-1.548-.276a3.679 3.679 0 0 1-1.26-.744l.432-.912c.76.616 1.556.924 2.388.924.56 0 .996-.148 1.308-.444.312-.304.468-.728.468-1.272 0-.52-.156-.936-.468-1.248-.312-.312-.728-.468-1.248-.468-.744 0-1.356.288-1.836.864h-.792v-4.968h5.184v.996h-3.96v2.664c.44-.368.996-.552 1.668-.552Zm9.547 5.352h-1.536l-2.772-2.76V433h-1.212v-8.46h1.212v5.244l2.568-2.628h1.5l-2.772 2.808 3.012 3.036Zm70.407-1.02h1.86V433h-4.944v-1.02h1.848v-5.964l-1.476.9-.528-.924 2.352-1.452h.888v7.44Zm6.235 1.116c-.984 0-1.736-.368-2.256-1.104-.512-.736-.768-1.808-.768-3.216 0-1.408.256-2.48.768-3.216.52-.744 1.272-1.116 2.256-1.116.984 0 1.732.368 2.244 1.104.52.736.78 1.808.78 3.216 0 1.416-.26 2.492-.78 3.228-.512.736-1.26 1.104-2.244 1.104Zm0-.996c.616 0 1.068-.268 1.356-.804.288-.536.432-1.38.432-2.532 0-1.144-.144-1.98-.432-2.508-.288-.536-.74-.804-1.356-.804-.616 0-1.068.268-1.356.804-.288.528-.432 1.364-.432 2.508s.144 1.988.432 2.532c.288.536.74.804 1.356.804Zm9.956.9h-1.536l-2.772-2.76V433h-1.212v-8.46h1.212v5.244l2.568-2.628h1.5l-2.772 2.808 3.012 3.036Zm69.809-1.02h1.86V433h-4.944v-1.02h1.848v-5.964l-1.476.9-.528-.924 2.352-1.452h.888v7.44Zm6.643-4.332c.528 0 .992.112 1.392.336.4.224.708.54.924.948.224.408.336.876.336 1.404 0 .544-.124 1.024-.372 1.44-.24.416-.588.74-1.044.972-.448.224-.972.336-1.572.336-.52 0-1.036-.092-1.548-.276a3.679 3.679 0 0 1-1.26-.744l.432-.912c.76.616 1.556.924 2.388.924.56 0 .996-.148 1.308-.444.312-.304.468-.728.468-1.272 0-.52-.156-.936-.468-1.248-.312-.312-.728-.468-1.248-.468-.744 0-1.356.288-1.836.864h-.792v-4.968h5.184v.996h-3.96v2.664c.44-.368.996-.552 1.668-.552Zm9.548 5.352h-1.536l-2.772-2.76V433h-1.212v-8.46h1.212v5.244l2.568-2.628h1.5l-2.772 2.808 3.012 3.036Zm71.753-1.02V433h-5.544v-.924l2.916-3.192c.376-.408.648-.78.816-1.116.168-.336.252-.668.252-.996 0-.432-.124-.76-.372-.984-.248-.224-.604-.336-1.068-.336-.792 0-1.576.308-2.352.924l-.432-.912c.336-.312.76-.56 1.272-.744a4.548 4.548 0 0 1 1.548-.276c.808 0 1.448.204 1.92.612.472.4.708.944.708 1.632 0 .488-.108.952-.324 1.392-.208.44-.56.932-1.056 1.476l-2.268 2.424h3.984Zm4.291 1.116c-.984 0-1.736-.368-2.256-1.104-.512-.736-.768-1.808-.768-3.216 0-1.408.256-2.48.768-3.216.52-.744 1.272-1.116 2.256-1.116.984 0 1.732.368 2.244 1.104.52.736.78 1.808.78 3.216 0 1.416-.26 2.492-.78 3.228-.512.736-1.26 1.104-2.244 1.104Zm0-.996c.616 0 1.068-.268 1.356-.804.288-.536.432-1.38.432-2.532 0-1.144-.144-1.98-.432-2.508-.288-.536-.74-.804-1.356-.804-.616 0-1.068.268-1.356.804-.288.528-.432 1.364-.432 2.508s.144 1.988.432 2.532c.288.536.74.804 1.356.804Zm9.956.9h-1.536l-2.772-2.76V433h-1.212v-8.46h1.212v5.244l2.568-2.628h1.5l-2.772 2.808 3.012 3.036Zm71.753-1.02V433h-5.544v-.924l2.916-3.192c.376-.408.648-.78.816-1.116.168-.336.252-.668.252-.996 0-.432-.124-.76-.372-.984-.248-.224-.604-.336-1.068-.336-.792 0-1.576.308-2.352.924l-.432-.912c.336-.312.76-.56 1.272-.744a4.548 4.548 0 0 1 1.548-.276c.808 0 1.448.204 1.92.612.472.4.708.944.708 1.632 0 .488-.108.952-.324 1.392-.208.44-.56.932-1.056 1.476l-2.268 2.424h3.984Zm4.699-4.332c.528 0 .992.112 1.392.336.4.224.708.54.924.948.224.408.336.876.336 1.404 0 .544-.124 1.024-.372 1.44-.24.416-.588.74-1.044.972-.448.224-.972.336-1.572.336-.52 0-1.036-.092-1.548-.276a3.679 3.679 0 0 1-1.26-.744l.432-.912c.76.616 1.556.924 2.388.924.56 0 .996-.148 1.308-.444.312-.304.468-.728.468-1.272 0-.52-.156-.936-.468-1.248-.312-.312-.728-.468-1.248-.468-.744 0-1.356.288-1.836.864h-.792v-4.968h5.184v.996h-3.96v2.664c.44-.368.996-.552 1.668-.552Zm9.548 5.352h-1.536l-2.772-2.76V433h-1.212v-8.46h1.212v5.244l2.568-2.628h1.5l-2.772 2.808 3.012 3.036Zm156.597-4.344c.496.144.872.392 1.128.744.264.344.396.78.396 1.308 0 .736-.26 1.316-.78 1.74-.52.424-1.224.636-2.112.636-.56 0-1.096-.088-1.608-.264a3.689 3.689 0 0 1-1.284-.756l.444-.912c.76.616 1.564.924 2.412.924.568 0 .996-.12 1.284-.36.296-.248.444-.612.444-1.092 0-.472-.152-.824-.456-1.056-.296-.24-.748-.36-1.356-.36h-1.044v-.996h.852c.584 0 1.028-.12 1.332-.36.312-.248.468-.608.468-1.08 0-.424-.128-.748-.384-.972-.256-.232-.616-.348-1.08-.348-.808 0-1.592.308-2.352.924l-.432-.912c.336-.32.756-.568 1.26-.744a4.65 4.65 0 0 1 1.584-.276c.792 0 1.424.196 1.896.588.472.392.708.924.708 1.596 0 .472-.116.888-.348 1.248a1.96 1.96 0 0 1-.972.78Zm6.355-1.008c.528 0 .992.112 1.392.336.4.224.708.54.924.948.224.408.336.876.336 1.404 0 .544-.124 1.024-.372 1.44-.24.416-.588.74-1.044.972-.448.224-.972.336-1.572.336-.52 0-1.036-.092-1.548-.276a3.679 3.679 0 0 1-1.26-.744l.432-.912c.76.616 1.556.924 2.388.924.56 0 .996-.148 1.308-.444.312-.304.468-.728.468-1.272 0-.52-.156-.936-.468-1.248-.312-.312-.728-.468-1.248-.468-.744 0-1.356.288-1.836.864h-.792v-4.968h5.184v.996h-3.96v2.664c.44-.368.996-.552 1.668-.552Zm9.548 5.352h-1.536l-2.772-2.76V433h-1.212v-8.46h1.212v5.244l2.568-2.628h1.5l-2.772 2.808 3.012 3.036Zm-102.403-4.344c.496.144.872.392 1.128.744.264.344.396.78.396 1.308 0 .736-.26 1.316-.78 1.74-.52.424-1.224.636-2.112.636-.56 0-1.096-.088-1.608-.264a3.689 3.689 0 0 1-1.284-.756l.444-.912c.76.616 1.564.924 2.412.924.568 0 .996-.12 1.284-.36.296-.248.444-.612.444-1.092 0-.472-.152-.824-.456-1.056-.296-.24-.748-.36-1.356-.36h-1.044v-.996h.852c.584 0 1.028-.12 1.332-.36.312-.248.468-.608.468-1.08 0-.424-.128-.748-.384-.972-.256-.232-.616-.348-1.08-.348-.808 0-1.592.308-2.352.924l-.432-.912c.336-.32.756-.568 1.26-.744a4.65 4.65 0 0 1 1.584-.276c.792 0 1.424.196 1.896.588.472.392.708.924.708 1.596 0 .472-.116.888-.348 1.248a1.96 1.96 0 0 1-.972.78Zm5.947 4.44c-.984 0-1.736-.368-2.256-1.104-.512-.736-.768-1.808-.768-3.216 0-1.408.256-2.48.768-3.216.52-.744 1.272-1.116 2.256-1.116.984 0 1.732.368 2.244 1.104.52.736.78 1.808.78 3.216 0 1.416-.26 2.492-.78 3.228-.512.736-1.26 1.104-2.244 1.104Zm0-.996c.616 0 1.068-.268 1.356-.804.288-.536.432-1.38.432-2.532 0-1.144-.144-1.98-.432-2.508-.288-.536-.74-.804-1.356-.804-.616 0-1.068.268-1.356.804-.288.528-.432 1.364-.432 2.508s.144 1.988.432 2.532c.288.536.74.804 1.356.804Zm9.956.9h-1.536l-2.772-2.76V433h-1.212v-8.46h1.212v5.244l2.568-2.628h1.5l-2.772 2.808 3.012 3.036ZM86.504 398.98V400H80.96v-.924l2.916-3.192c.376-.408.648-.78.816-1.116.168-.336.252-.668.252-.996 0-.432-.124-.76-.372-.984-.248-.224-.604-.336-1.068-.336-.792 0-1.576.308-2.352.924l-.432-.912c.336-.312.76-.56 1.272-.744a4.548 4.548 0 0 1 1.548-.276c.808 0 1.448.204 1.92.612.472.4.708.944.708 1.632 0 .488-.108.952-.324 1.392-.208.44-.56.932-1.056 1.476l-2.268 2.424h3.984Zm4.291 1.116c-.984 0-1.736-.368-2.256-1.104-.512-.736-.768-1.808-.768-3.216 0-1.408.256-2.48.768-3.216.52-.744 1.272-1.116 2.256-1.116.984 0 1.732.368 2.244 1.104.52.736.78 1.808.78 3.216 0 1.416-.26 2.492-.78 3.228-.512.736-1.26 1.104-2.244 1.104Zm0-.996c.616 0 1.068-.268 1.356-.804.288-.536.432-1.38.432-2.532 0-1.144-.144-1.98-.432-2.508-.288-.536-.74-.804-1.356-.804-.616 0-1.068.268-1.356.804-.288.528-.432 1.364-.432 2.508s.144 1.988.432 2.532c.288.536.74.804 1.356.804Z"/><g opacity=".952"><path fill="#fff" fill-rule="evenodd" d="M156 396.5h997.16Z" clip-rule="evenodd"/><path stroke="#EAEAEA" stroke-linecap="square" d="M156 396.5h997.16"/><path fill="#fff" fill-rule="evenodd" d="M156 337.5h997.16Z" clip-rule="evenodd"/><path stroke="#EAEAEA" stroke-linecap="square" d="M156 337.5h997.16"/><path fill="#fff" fill-rule="evenodd" d="M156 278.5h997.16Z" clip-rule="evenodd"/><path stroke="#EAEAEA" stroke-linecap="square" d="M156 278.5h997.16"/><path fill="#fff" fill-rule="evenodd" d="M156 219.5h997.16Z" clip-rule="evenodd"/><path stroke="#EAEAEA" stroke-linecap="square" d="M156 219.5h997.16"/><path fill="#fff" fill-rule="evenodd" d="M156 160.5h997.16Z" clip-rule="evenodd"/><path stroke="#EAEAEA" stroke-linecap="square" d="M156 160.5h997.16"/></g><path fill="#2B3034" fill-opacity=".4" d="M86.816 338.264v.984H85.58V341h-1.212v-1.752h-3.804v-.924l4.008-5.784h1.008v5.724h1.236Zm-5.04 0h2.592v-3.744l-2.592 3.744Zm9.02 2.832c-.985 0-1.737-.368-2.257-1.104-.512-.736-.768-1.808-.768-3.216 0-1.408.256-2.48.768-3.216.52-.744 1.272-1.116 2.256-1.116.984 0 1.732.368 2.244 1.104.52.736.78 1.808.78 3.216 0 1.416-.26 2.492-.78 3.228-.512.736-1.26 1.104-2.244 1.104Zm0-.996c.615 0 1.067-.268 1.355-.804.288-.536.432-1.38.432-2.532 0-1.144-.144-1.98-.432-2.508-.288-.536-.74-.804-1.356-.804-.616 0-1.068.268-1.356.804-.288.528-.432 1.364-.432 2.508s.144 1.988.432 2.532c.288.536.74.804 1.356.804Zm-6.764-63.464c.512 0 .964.116 1.356.348.4.224.708.54.924.948.224.408.336.876.336 1.404 0 .528-.12 1.004-.36 1.428a2.53 2.53 0 0 1-.984.984c-.424.232-.9.348-1.428.348-1.048 0-1.856-.356-2.424-1.068-.56-.72-.84-1.744-.84-3.072 0-.944.132-1.752.396-2.424.264-.68.648-1.196 1.152-1.548.504-.36 1.104-.54 1.8-.54.496 0 .98.088 1.452.264.472.176.884.428 1.236.756l-.444.912c-.752-.616-1.488-.924-2.208-.924-.688 0-1.22.304-1.596.912-.376.6-.564 1.456-.564 2.568v.036c.176-.416.46-.74.852-.972.4-.24.848-.36 1.344-.36Zm-.216 4.452c.496 0 .892-.156 1.188-.468.296-.32.444-.74.444-1.26s-.152-.936-.456-1.248c-.296-.312-.692-.468-1.188-.468s-.904.16-1.224.48c-.32.312-.48.724-.48 1.236s.156.928.468 1.248c.32.32.736.48 1.248.48Zm6.968 1.008c-.984 0-1.736-.368-2.256-1.104-.512-.736-.768-1.808-.768-3.216 0-1.408.256-2.48.768-3.216.52-.744 1.272-1.116 2.256-1.116.984 0 1.732.368 2.244 1.104.52.736.78 1.808.78 3.216 0 1.416-.26 2.492-.78 3.228-.512.736-1.26 1.104-2.244 1.104Zm0-.996c.616 0 1.068-.268 1.356-.804.288-.536.432-1.38.432-2.532 0-1.144-.144-1.98-.432-2.508-.288-.536-.74-.804-1.356-.804-.616 0-1.068.268-1.356.804-.288.528-.432 1.364-.432 2.508s.144 1.988.432 2.532c.288.536.74.804 1.356.804Zm-5.648-62.444c.496.144.88.4 1.152.768.272.368.408.808.408 1.32 0 .736-.272 1.312-.816 1.728-.536.408-1.296.612-2.28.612-.984 0-1.748-.204-2.292-.612-.536-.416-.804-.992-.804-1.728 0-.52.136-.964.408-1.332.28-.368.668-.62 1.164-.756a2.14 2.14 0 0 1-1.008-.756 2.045 2.045 0 0 1-.36-1.2c0-.696.256-1.244.768-1.644.512-.408 1.22-.612 2.124-.612.904 0 1.612.204 2.124.612.512.4.768.948.768 1.644 0 .456-.124.86-.372 1.212-.24.344-.568.592-.984.744ZM83.6 215.44c-.56 0-.984.12-1.272.36-.288.232-.432.568-.432 1.008 0 .456.144.804.432 1.044.288.24.712.36 1.272.36s.984-.12 1.272-.36c.288-.24.432-.588.432-1.044 0-.44-.144-.776-.432-1.008-.288-.24-.712-.36-1.272-.36Zm0 6.648c1.272 0 1.908-.476 1.908-1.428 0-.96-.636-1.44-1.908-1.44-1.272 0-1.908.48-1.908 1.44 0 .952.636 1.428 1.908 1.428Zm7.195 1.008c-.984 0-1.736-.368-2.256-1.104-.512-.736-.768-1.808-.768-3.216 0-1.408.256-2.48.768-3.216.52-.744 1.272-1.116 2.256-1.116.984 0 1.732.368 2.244 1.104.52.736.78 1.808.78 3.216 0 1.416-.26 2.492-.78 3.228-.512.736-1.26 1.104-2.244 1.104Zm0-.996c.616 0 1.068-.268 1.356-.804.288-.536.432-1.38.432-2.532 0-1.144-.144-1.98-.432-2.508-.288-.536-.74-.804-1.356-.804-.616 0-1.068.268-1.356.804-.288.528-.432 1.364-.432 2.508s.144 1.988.432 2.532c.288.536.74.804 1.356.804Zm-6.235-59.12h1.86V164h-4.944v-1.02h1.848v-5.964l-1.476.9-.528-.924 2.352-1.452h.888v7.44Zm6.235 1.116c-.984 0-1.736-.368-2.256-1.104-.512-.736-.768-1.808-.768-3.216 0-1.408.256-2.48.768-3.216.52-.744 1.272-1.116 2.256-1.116.984 0 1.732.368 2.244 1.104.52.736.78 1.808.78 3.216 0 1.416-.26 2.492-.78 3.228-.512.736-1.26 1.104-2.244 1.104Zm0-.996c.616 0 1.068-.268 1.356-.804.288-.536.432-1.38.432-2.532 0-1.144-.144-1.98-.432-2.508-.288-.536-.74-.804-1.356-.804-.616 0-1.068.268-1.356.804-.288.528-.432 1.364-.432 2.508s.144 1.988.432 2.532c.288.536.74.804 1.356.804Zm7.196.996c-.984 0-1.736-.368-2.256-1.104-.512-.736-.768-1.808-.768-3.216 0-1.408.256-2.48.768-3.216.52-.744 1.272-1.116 2.256-1.116.984 0 1.732.368 2.244 1.104.52.736.78 1.808.78 3.216 0 1.416-.26 2.492-.78 3.228-.512.736-1.26 1.104-2.244 1.104Zm0-.996c.616 0 1.068-.268 1.356-.804.288-.536.432-1.38.432-2.532 0-1.144-.144-1.98-.432-2.508-.288-.536-.74-.804-1.356-.804-.616 0-1.068.268-1.356.804-.288.528-.432 1.364-.432 2.508s.144 1.988.432 2.532c.288.536.74.804 1.356.804Z"/><path fill="#122009" fill-rule="evenodd" d="M160 395.867s60.526-149.59 84.834-149.59 79.057 111.432 139.651 111.432c60.593 0 79.733-38.724 157.836-54.21 78.103-15.487 82.764 72.978 121.418 72.978 38.653 0 96.456-92.704 124.581-92.704 26.624 0 36.541 92.704 118.441 92.704s132.989-189.61 170.109-189.61c37.12 0 77.13 209 77.13 209H160Z" clip-rule="evenodd" opacity=".78"/><path fill="#CBF98A" fill-opacity=".8" fill-rule="evenodd" d="M160 396s54.625-39.598 100.585-39.598c45.959 0 49.028 18.167 132.477 18.167 83.448 0 113.441-83.069 128.648-83.069 15.207 0 16.381 64.902 56.774 64.902C623.765 356.402 655.53 187 688.808 187c42.203 0 64.495 152.453 102.451 152.453 37.956 0 61.201-80.877 99.94-80.877 34.402 0 58.736 83.796 83.406 93.235 26.025 9.958 38.015-69.269 86.955-69.269S1158 396 1158 396H160Z" clip-rule="evenodd"/><rect width="103.4" height="27.4" x="1050.3" y="80.3" fill="#FCFDFD" stroke="#D5D5D5" stroke-width=".6" rx="3.7"/><path fill="#2B3034" fill-opacity=".4" d="m1136.86 91.268-3.86 4.026-3.86-4.026c-.3-.35-.61-.357-.91-.022-.31.336-.31.664 0 .985l4.31 4.55c.11.146.27.219.46.219s.35-.073.46-.219l4.31-4.55c.31-.321.31-.65 0-.985-.3-.335-.61-.328-.91.022Zm-67.72 2.472c0-2.052 1.41-3.072 2.84-3.072 1.44 0 2.86 1.02 2.86 3.072s-1.42 3.072-2.86 3.072c-1.43 0-2.84-1.02-2.84-3.072Zm-1.48 0c0 2.796 2.09 4.44 4.32 4.44 2.23 0 4.33-1.644 4.33-4.44 0-2.784-2.1-4.428-4.33-4.428s-4.32 1.644-4.32 4.428Zm12.62-.48c.89 0 1.28.576 1.42 1.092l1.24-.456c-.24-.936-1.1-1.92-2.67-1.92-1.68 0-2.99 1.296-2.99 3.096 0 1.776 1.31 3.108 3.02 3.108 1.54 0 2.42-.996 2.69-1.908l-1.22-.444c-.13.444-.55 1.08-1.47 1.08-.87 0-1.63-.66-1.63-1.836 0-1.176.76-1.812 1.61-1.812Zm5.71-2.892h-1.26v.876c0 .516-.27.912-.9.912h-.3v1.236h1.08v2.94c0 1.092.67 1.74 1.75 1.74.51 0 .77-.096.86-.132v-1.152a3 3 0 0 1-.48.048c-.52 0-.75-.216-.75-.732v-2.712h1.21v-1.236h-1.21v-1.788Zm5.15 6.564c-.85 0-1.63-.648-1.63-1.86 0-1.212.78-1.836 1.63-1.836.87 0 1.64.624 1.64 1.836 0 1.224-.77 1.86-1.64 1.86Zm0-4.956c-1.74 0-3.02 1.308-3.02 3.096 0 1.8 1.28 3.108 3.02 3.108 1.76 0 3.04-1.308 3.04-3.108 0-1.788-1.28-3.096-3.04-3.096Zm5.74 6.024v-.78c.34.564.97.924 1.8.924 1.71 0 2.75-1.332 2.75-3.096 0-1.716-.95-3.048-2.7-3.048-.9 0-1.57.42-1.84.876v-3.564h-1.36V98h1.35Zm3.15-2.94c0 1.152-.66 1.848-1.58 1.848-.88 0-1.57-.696-1.57-1.848 0-1.164.69-1.824 1.57-1.824.93 0 1.58.66 1.58 1.824Zm3.71-.624c.05-.624.55-1.296 1.43-1.296.96 0 1.41.612 1.44 1.296h-2.87Zm3.02 1.524c-.19.576-.62 1.02-1.46 1.02-.86 0-1.56-.636-1.6-1.524h4.28c.01-.024.03-.216.03-.444 0-1.848-1.05-3.036-2.85-3.036-1.48 0-2.85 1.224-2.85 3.072 0 1.98 1.41 3.132 2.99 3.132 1.4 0 2.33-.828 2.64-1.848l-1.18-.372Zm6-3.84c-.06-.012-.2-.036-.37-.036-.77 0-1.42.372-1.69 1.008v-.936h-1.36V98h1.39v-2.784c0-1.092.5-1.716 1.58-1.716.14 0 .3.012.45.036V92.12Z"/><path fill="#202224" d="M96.008 103h-3.36l-2.904-5.4c-.272-.512-.608-.872-1.008-1.08-.4-.208-.904-.312-1.512-.312h-2.352V103h-3.048V86.08h7.488c1.92 0 3.376.432 4.368 1.296 1.008.848 1.512 2.08 1.512 3.696 0 1.296-.368 2.368-1.104 3.216-.72.832-1.744 1.376-3.072 1.632.896.24 1.616.872 2.16 1.896L96.008 103Zm-7.128-9.168c1.168 0 2.024-.216 2.568-.648.544-.448.816-1.128.816-2.04 0-.928-.272-1.6-.816-2.016-.544-.432-1.4-.648-2.568-.648h-4.032v5.352h4.032Zm19.664 3.84h-7.992c.096 1.088.424 1.896.984 2.424s1.36.792 2.4.792c1.296 0 2.48-.416 3.552-1.248l.864 2.064c-.544.448-1.232.808-2.064 1.08a7.772 7.772 0 0 1-2.472.408c-1.92 0-3.44-.544-4.56-1.632-1.105-1.088-1.656-2.576-1.656-4.464 0-1.2.24-2.264.72-3.192a5.257 5.257 0 0 1 2.016-2.16c.88-.512 1.872-.768 2.976-.768 1.616 0 2.888.52 3.816 1.56.944 1.04 1.416 2.472 1.416 4.296v.84Zm-5.16-4.584c-.8 0-1.448.256-1.944.768-.48.512-.776 1.248-.888 2.208h5.424c-.032-.976-.272-1.712-.72-2.208-.448-.512-1.072-.768-1.872-.768Zm15.658-1.8h2.952L116.858 103h-2.616l-5.088-11.712h3.168l3.312 8.28 3.408-8.28Zm14.509 6.384h-7.992c.096 1.088.424 1.896.984 2.424s1.36.792 2.4.792c1.296 0 2.48-.416 3.552-1.248l.864 2.064c-.544.448-1.232.808-2.064 1.08a7.772 7.772 0 0 1-2.472.408c-1.92 0-3.44-.544-4.56-1.632-1.104-1.088-1.656-2.576-1.656-4.464 0-1.2.24-2.264.72-3.192a5.26 5.26 0 0 1 2.016-2.16c.88-.512 1.872-.768 2.976-.768 1.616 0 2.888.52 3.816 1.56.944 1.04 1.416 2.472 1.416 4.296v.84Zm-5.16-4.584c-.8 0-1.448.256-1.944.768-.48.512-.776 1.248-.888 2.208h5.424c-.032-.976-.272-1.712-.72-2.208-.448-.512-1.072-.768-1.872-.768Zm14.43-2.112c1.408 0 2.456.4 3.144 1.2.688.8 1.032 2.008 1.032 3.624v7.2h-3v-7.032c0-.912-.176-1.576-.528-1.992-.336-.416-.872-.624-1.608-.624-.864 0-1.56.272-2.088.816-.512.544-.768 1.272-.768 2.184V103h-3V91.264h2.928v1.752c.4-.656.936-1.16 1.608-1.512.672-.352 1.432-.528 2.28-.528Zm17.999.288V103h-2.928v-1.8a3.91 3.91 0 0 1-1.488 1.488c-.624.336-1.328.504-2.112.504-2.88 0-4.32-1.616-4.32-4.848v-7.08h3v7.104c0 .832.168 1.448.504 1.848.336.4.864.6 1.584.6.832 0 1.496-.272 1.992-.816.512-.56.768-1.296.768-2.208v-6.528h3Zm13.419 6.408h-7.992c.096 1.088.424 1.896.984 2.424s1.36.792 2.4.792c1.296 0 2.48-.416 3.552-1.248l.864 2.064c-.544.448-1.232.808-2.064 1.08a7.772 7.772 0 0 1-2.472.408c-1.92 0-3.44-.544-4.56-1.632-1.104-1.088-1.656-2.576-1.656-4.464 0-1.2.24-2.264.72-3.192a5.26 5.26 0 0 1 2.016-2.16c.88-.512 1.872-.768 2.976-.768 1.616 0 2.888.52 3.816 1.56.944 1.04 1.416 2.472 1.416 4.296v.84Zm-5.16-4.584c-.8 0-1.448.256-1.944.768-.48.512-.776 1.248-.888 2.208h5.424c-.032-.976-.272-1.712-.72-2.208-.448-.512-1.072-.768-1.872-.768Z"/><defs><filter id="a" width="1246" height="586" x="0" y="0" color-interpolation-filters="sRGB" filterUnits="userSpaceOnUse"><feFlood flood-opacity="0" result="BackgroundImageFix"/><feColorMatrix in="SourceAlpha" result="hardAlpha" values="0 0 0 0 0 0 0 0 0 0 0 0 0 0 0 0 0 0 127 0"/><feOffset dx="6" dy="6"/><feGaussianBlur stdDeviation="27"/><feColorMatrix values="0 0 0 0 0 0 0 0 0 0 0 0 0 0 0 0 0 0 0.05 0"/><feBlend in2="BackgroundImageFix" result="effect1_dropShadow_202_4810"/><feBlend in="SourceGraphic" in2="effect1_dropShadow_202_4810" result="shape"/></filter></defs></svg>