<svg viewBox="0 0 1246 552" xmlns:xlink="http://www.w3.org/1999/xlink" xmlns="http://www.w3.org/2000/svg" width="1246" height="552" fill="none"><g filter="url(#a)"><path fill="#fff" fill-rule="evenodd" d="M48 62c0-7.732 6.268-14 14-14h1110c7.73 0 14 6.268 14 14v416c0 7.732-6.27 14-14 14H62c-7.732 0-14-6.268-14-14V62Z" clip-rule="evenodd"/></g><path fill="#2B3034" fill-opacity=".4" d="M759.021 430.264v.984h-1.236V433h-1.212v-1.752h-3.804v-.924l4.008-5.784h1.008v5.724h1.236Zm-5.04 0h2.592v-3.744l-2.592 3.744Zm9.019 2.832c-.984 0-1.736-.368-2.256-1.104-.512-.736-.768-1.808-.768-3.216 0-1.408.256-2.48.768-3.216.52-.744 1.272-1.116 2.256-1.116.984 0 1.732.368 2.244 1.104.52.736.78 1.808.78 3.216 0 1.416-.26 2.492-.78 3.228-.512.736-1.26 1.104-2.244 1.104Zm0-.996c.616 0 1.068-.268 1.356-.804.288-.536.432-1.38.432-2.532 0-1.144-.144-1.98-.432-2.508-.288-.536-.74-.804-1.356-.804-.616 0-1.068.268-1.356.804-.288.528-.432 1.364-.432 2.508s.144 1.988.432 2.532c.288.536.74.804 1.356.804Zm9.956.9h-1.536l-2.772-2.76V433h-1.212v-8.46h1.212v5.244l2.568-2.628h1.5l-2.772 2.808 3.012 3.036Zm72.065-2.736v.984h-1.236V433h-1.212v-1.752h-3.804v-.924l4.008-5.784h1.008v5.724h1.236Zm-5.04 0h2.592v-3.744l-2.592 3.744Zm9.427-2.616c.528 0 .992.112 1.392.336.4.224.708.54.924.948.224.408.336.876.336 1.404 0 .544-.124 1.024-.372 1.44-.24.416-.588.74-1.044.972-.448.224-.972.336-1.572.336-.52 0-1.036-.092-1.548-.276a3.679 3.679 0 0 1-1.26-.744l.432-.912c.76.616 1.556.924 2.388.924.56 0 .996-.148 1.308-.444.312-.304.468-.728.468-1.272 0-.52-.156-.936-.468-1.248-.312-.312-.728-.468-1.248-.468-.744 0-1.356.288-1.836.864h-.792v-4.968h5.184v.996h-3.96v2.664c.44-.368.996-.552 1.668-.552Zm9.548 5.352h-1.536l-2.772-2.76V433h-1.212v-8.46h1.212v5.244l2.568-2.628h1.5l-2.772 2.808 3.012 3.036Zm69.257-5.352c.528 0 .992.112 1.392.336.4.224.708.54.924.948.224.408.336.876.336 1.404 0 .544-.124 1.024-.372 1.44-.24.416-.588.74-1.044.972-.448.224-.972.336-1.572.336-.52 0-1.036-.092-1.548-.276a3.679 3.679 0 0 1-1.26-.744l.432-.912c.76.616 1.556.924 2.388.924.56 0 .996-.148 1.308-.444.312-.304.468-.728.468-1.272 0-.52-.156-.936-.468-1.248-.312-.312-.728-.468-1.248-.468-.744 0-1.356.288-1.836.864h-.792v-4.968h5.184v.996h-3.96v2.664c.44-.368.996-.552 1.668-.552Zm6.787 5.448c-.984 0-1.736-.368-2.256-1.104-.512-.736-.768-1.808-.768-3.216 0-1.408.256-2.48.768-3.216.52-.744 1.272-1.116 2.256-1.116.984 0 1.732.368 2.244 1.104.52.736.78 1.808.78 3.216 0 1.416-.26 2.492-.78 3.228-.512.736-1.26 1.104-2.244 1.104Zm0-.996c.616 0 1.068-.268 1.356-.804.288-.536.432-1.38.432-2.532 0-1.144-.144-1.98-.432-2.508-.288-.536-.74-.804-1.356-.804-.616 0-1.068.268-1.356.804-.288.528-.432 1.364-.432 2.508s.144 1.988.432 2.532c.288.536.74.804 1.356.804Zm9.956.9h-1.536l-2.772-2.76V433h-1.212v-8.46h1.212v5.244l2.568-2.628h1.5l-2.772 2.808 3.012 3.036Zm69.254-5.352c.53 0 1 .112 1.4.336.4.224.7.54.92.948.22.408.34.876.34 1.404 0 .544-.13 1.024-.38 1.44-.24.416-.58.74-1.04.972-.45.224-.97.336-1.57.336-.52 0-1.04-.092-1.55-.276-.5-.184-.92-.432-1.26-.744l.43-.912c.76.616 1.56.924 2.39.924.56 0 1-.148 1.31-.444.31-.304.47-.728.47-1.272 0-.52-.16-.936-.47-1.248-.31-.312-.73-.468-1.25-.468-.74 0-1.36.288-1.84.864h-.79v-4.968h5.19v.996h-3.96v2.664c.44-.368.99-.552 1.66-.552Zm7.2 0c.53 0 .99.112 1.39.336.4.224.71.54.92.948.23.408.34.876.34 1.404 0 .544-.12 1.024-.37 1.44-.24.416-.59.74-1.05.972-.44.224-.97.336-1.57.336-.52 0-1.03-.092-1.55-.276-.5-.184-.92-.432-1.26-.744l.44-.912c.76.616 1.55.924 2.38.924.56 0 1-.148 1.31-.444.31-.304.47-.728.47-1.272 0-.52-.16-.936-.47-1.248-.31-.312-.73-.468-1.25-.468-.74 0-1.35.288-1.83.864h-.79v-4.968h5.18v.996h-3.96v2.664c.44-.368 1-.552 1.67-.552Zm9.55 5.352h-1.54l-2.77-2.76V433h-1.21v-8.46h1.21v5.244l2.57-2.628h1.5l-2.78 2.808 3.02 3.036Zm69.28-5.364c.51 0 .97.116 1.36.348.4.224.71.54.92.948.23.408.34.876.34 1.404 0 .528-.12 1.004-.36 1.428-.23.416-.56.744-.99.984-.42.232-.9.348-1.42.348-1.05 0-1.86-.356-2.43-1.068-.56-.72-.84-1.744-.84-3.072 0-.944.13-1.752.4-2.424.26-.68.65-1.196 1.15-1.548.5-.36 1.1-.54 1.8-.54.5 0 .98.088 1.45.264.47.176.89.428 1.24.756l-.45.912c-.75-.616-1.48-.924-2.2-.924-.69 0-1.22.304-1.6.912-.38.6-.56 1.456-.56 2.568v.036c.17-.416.46-.74.85-.972.4-.24.85-.36 1.34-.36Zm-.21 4.452c.49 0 .89-.156 1.18-.468.3-.32.45-.74.45-1.26s-.15-.936-.46-1.248c-.29-.312-.69-.468-1.19-.468-.49 0-.9.16-1.22.48-.32.312-.48.724-.48 1.236s.16.928.47 1.248c.32.32.73.48 1.25.48Zm6.96 1.008c-.98 0-1.73-.368-2.25-1.104-.51-.736-.77-1.808-.77-3.216 0-1.408.26-2.48.77-3.216.52-.744 1.27-1.116 2.25-1.116.99 0 1.74.368 2.25 1.104.52.736.78 1.808.78 3.216 0 1.416-.26 2.492-.78 3.228-.51.736-1.26 1.104-2.25 1.104Zm0-.996c.62 0 1.07-.268 1.36-.804.29-.536.43-1.38.43-2.532 0-1.144-.14-1.98-.43-2.508-.29-.536-.74-.804-1.36-.804-.61 0-1.06.268-1.35.804-.29.528-.43 1.364-.43 2.508s.14 1.988.43 2.532c.29.536.74.804 1.35.804Zm9.96.9h-1.54l-2.77-2.76V433h-1.21v-8.46h1.21v5.244l2.57-2.628h1.5l-2.77 2.808 3.01 3.036Zm-956.639-5.352c.528 0 .992.112 1.392.336.4.224.708.54.924.948.224.408.336.876.336 1.404 0 .544-.124 1.024-.372 1.44-.24.416-.588.74-1.044.972-.448.224-.972.336-1.572.336-.52 0-1.036-.092-1.548-.276a3.679 3.679 0 0 1-1.26-.744l.432-.912c.76.616 1.556.924 2.388.924.56 0 .996-.148 1.308-.444.312-.304.468-.728.468-1.272 0-.52-.156-.936-.468-1.248-.312-.312-.728-.468-1.248-.468-.744 0-1.356.288-1.836.864h-.792v-4.968h5.184v.996h-3.96v2.664c.44-.368.996-.552 1.668-.552Zm9.547 5.352h-1.536l-2.772-2.76V433h-1.212v-8.46h1.212v5.244l2.568-2.628h1.5l-2.772 2.808 3.012 3.036Zm70.407-1.02h1.86V433h-4.944v-1.02h1.848v-5.964l-1.476.9-.528-.924 2.352-1.452h.888v7.44Zm6.235 1.116c-.984 0-1.736-.368-2.256-1.104-.512-.736-.768-1.808-.768-3.216 0-1.408.256-2.48.768-3.216.52-.744 1.272-1.116 2.256-1.116.984 0 1.732.368 2.244 1.104.52.736.78 1.808.78 3.216 0 1.416-.26 2.492-.78 3.228-.512.736-1.26 1.104-2.244 1.104Zm0-.996c.616 0 1.068-.268 1.356-.804.288-.536.432-1.38.432-2.532 0-1.144-.144-1.98-.432-2.508-.288-.536-.74-.804-1.356-.804-.616 0-1.068.268-1.356.804-.288.528-.432 1.364-.432 2.508s.144 1.988.432 2.532c.288.536.74.804 1.356.804Zm9.956.9h-1.536l-2.772-2.76V433h-1.212v-8.46h1.212v5.244l2.568-2.628h1.5l-2.772 2.808 3.012 3.036Zm69.809-1.02h1.86V433h-4.944v-1.02h1.848v-5.964l-1.476.9-.528-.924 2.352-1.452h.888v7.44Zm6.643-4.332c.528 0 .992.112 1.392.336.4.224.708.54.924.948.224.408.336.876.336 1.404 0 .544-.124 1.024-.372 1.44-.24.416-.588.74-1.044.972-.448.224-.972.336-1.572.336-.52 0-1.036-.092-1.548-.276a3.679 3.679 0 0 1-1.26-.744l.432-.912c.76.616 1.556.924 2.388.924.56 0 .996-.148 1.308-.444.312-.304.468-.728.468-1.272 0-.52-.156-.936-.468-1.248-.312-.312-.728-.468-1.248-.468-.744 0-1.356.288-1.836.864h-.792v-4.968h5.184v.996h-3.96v2.664c.44-.368.996-.552 1.668-.552Zm9.548 5.352h-1.536l-2.772-2.76V433h-1.212v-8.46h1.212v5.244l2.568-2.628h1.5l-2.772 2.808 3.012 3.036Zm71.753-1.02V433h-5.544v-.924l2.916-3.192c.376-.408.648-.78.816-1.116.168-.336.252-.668.252-.996 0-.432-.124-.76-.372-.984-.248-.224-.604-.336-1.068-.336-.792 0-1.576.308-2.352.924l-.432-.912c.336-.312.76-.56 1.272-.744a4.548 4.548 0 0 1 1.548-.276c.808 0 1.448.204 1.92.612.472.4.708.944.708 1.632 0 .488-.108.952-.324 1.392-.208.44-.56.932-1.056 1.476l-2.268 2.424h3.984Zm4.291 1.116c-.984 0-1.736-.368-2.256-1.104-.512-.736-.768-1.808-.768-3.216 0-1.408.256-2.48.768-3.216.52-.744 1.272-1.116 2.256-1.116.984 0 1.732.368 2.244 1.104.52.736.78 1.808.78 3.216 0 1.416-.26 2.492-.78 3.228-.512.736-1.26 1.104-2.244 1.104Zm0-.996c.616 0 1.068-.268 1.356-.804.288-.536.432-1.38.432-2.532 0-1.144-.144-1.98-.432-2.508-.288-.536-.74-.804-1.356-.804-.616 0-1.068.268-1.356.804-.288.528-.432 1.364-.432 2.508s.144 1.988.432 2.532c.288.536.74.804 1.356.804Zm9.956.9h-1.536l-2.772-2.76V433h-1.212v-8.46h1.212v5.244l2.568-2.628h1.5l-2.772 2.808 3.012 3.036Zm71.753-1.02V433h-5.544v-.924l2.916-3.192c.376-.408.648-.78.816-1.116.168-.336.252-.668.252-.996 0-.432-.124-.76-.372-.984-.248-.224-.604-.336-1.068-.336-.792 0-1.576.308-2.352.924l-.432-.912c.336-.312.76-.56 1.272-.744a4.548 4.548 0 0 1 1.548-.276c.808 0 1.448.204 1.92.612.472.4.708.944.708 1.632 0 .488-.108.952-.324 1.392-.208.44-.56.932-1.056 1.476l-2.268 2.424h3.984Zm4.699-4.332c.528 0 .992.112 1.392.336.4.224.708.54.924.948.224.408.336.876.336 1.404 0 .544-.124 1.024-.372 1.44-.24.416-.588.74-1.044.972-.448.224-.972.336-1.572.336-.52 0-1.036-.092-1.548-.276a3.679 3.679 0 0 1-1.26-.744l.432-.912c.76.616 1.556.924 2.388.924.56 0 .996-.148 1.308-.444.312-.304.468-.728.468-1.272 0-.52-.156-.936-.468-1.248-.312-.312-.728-.468-1.248-.468-.744 0-1.356.288-1.836.864h-.792v-4.968h5.184v.996h-3.96v2.664c.44-.368.996-.552 1.668-.552Zm9.548 5.352h-1.536l-2.772-2.76V433h-1.212v-8.46h1.212v5.244l2.568-2.628h1.5l-2.772 2.808 3.012 3.036Zm156.597-4.344c.496.144.872.392 1.128.744.264.344.396.78.396 1.308 0 .736-.26 1.316-.78 1.74-.52.424-1.224.636-2.112.636-.56 0-1.096-.088-1.608-.264a3.689 3.689 0 0 1-1.284-.756l.444-.912c.76.616 1.564.924 2.412.924.568 0 .996-.12 1.284-.36.296-.248.444-.612.444-1.092 0-.472-.152-.824-.456-1.056-.296-.24-.748-.36-1.356-.36h-1.044v-.996h.852c.584 0 1.028-.12 1.332-.36.312-.248.468-.608.468-1.08 0-.424-.128-.748-.384-.972-.256-.232-.616-.348-1.08-.348-.808 0-1.592.308-2.352.924l-.432-.912c.336-.32.756-.568 1.26-.744a4.65 4.65 0 0 1 1.584-.276c.792 0 1.424.196 1.896.588.472.392.708.924.708 1.596 0 .472-.116.888-.348 1.248a1.96 1.96 0 0 1-.972.78Zm6.355-1.008c.528 0 .992.112 1.392.336.4.224.708.54.924.948.224.408.336.876.336 1.404 0 .544-.124 1.024-.372 1.44-.24.416-.588.74-1.044.972-.448.224-.972.336-1.572.336-.52 0-1.036-.092-1.548-.276a3.679 3.679 0 0 1-1.26-.744l.432-.912c.76.616 1.556.924 2.388.924.56 0 .996-.148 1.308-.444.312-.304.468-.728.468-1.272 0-.52-.156-.936-.468-1.248-.312-.312-.728-.468-1.248-.468-.744 0-1.356.288-1.836.864h-.792v-4.968h5.184v.996h-3.96v2.664c.44-.368.996-.552 1.668-.552Zm9.548 5.352h-1.536l-2.772-2.76V433h-1.212v-8.46h1.212v5.244l2.568-2.628h1.5l-2.772 2.808 3.012 3.036Zm-102.403-4.344c.496.144.872.392 1.128.744.264.344.396.78.396 1.308 0 .736-.26 1.316-.78 1.74-.52.424-1.224.636-2.112.636-.56 0-1.096-.088-1.608-.264a3.689 3.689 0 0 1-1.284-.756l.444-.912c.76.616 1.564.924 2.412.924.568 0 .996-.12 1.284-.36.296-.248.444-.612.444-1.092 0-.472-.152-.824-.456-1.056-.296-.24-.748-.36-1.356-.36h-1.044v-.996h.852c.584 0 1.028-.12 1.332-.36.312-.248.468-.608.468-1.08 0-.424-.128-.748-.384-.972-.256-.232-.616-.348-1.08-.348-.808 0-1.592.308-2.352.924l-.432-.912c.336-.32.756-.568 1.26-.744a4.65 4.65 0 0 1 1.584-.276c.792 0 1.424.196 1.896.588.472.392.708.924.708 1.596 0 .472-.116.888-.348 1.248a1.96 1.96 0 0 1-.972.78Zm5.947 4.44c-.984 0-1.736-.368-2.256-1.104-.512-.736-.768-1.808-.768-3.216 0-1.408.256-2.48.768-3.216.52-.744 1.272-1.116 2.256-1.116.984 0 1.732.368 2.244 1.104.52.736.78 1.808.78 3.216 0 1.416-.26 2.492-.78 3.228-.512.736-1.26 1.104-2.244 1.104Zm0-.996c.616 0 1.068-.268 1.356-.804.288-.536.432-1.38.432-2.532 0-1.144-.144-1.98-.432-2.508-.288-.536-.74-.804-1.356-.804-.616 0-1.068.268-1.356.804-.288.528-.432 1.364-.432 2.508s.144 1.988.432 2.532c.288.536.74.804 1.356.804Zm9.956.9h-1.536l-2.772-2.76V433h-1.212v-8.46h1.212v5.244l2.568-2.628h1.5l-2.772 2.808 3.012 3.036ZM86.504 398.98V400H80.96v-.924l2.916-3.192c.376-.408.648-.78.816-1.116.168-.336.252-.668.252-.996 0-.432-.124-.76-.372-.984-.248-.224-.604-.336-1.068-.336-.792 0-1.576.308-2.352.924l-.432-.912c.336-.312.76-.56 1.272-.744a4.548 4.548 0 0 1 1.548-.276c.808 0 1.448.204 1.92.612.472.4.708.944.708 1.632 0 .488-.108.952-.324 1.392-.208.44-.56.932-1.056 1.476l-2.268 2.424h3.984Zm4.291 1.116c-.984 0-1.736-.368-2.256-1.104-.512-.736-.768-1.808-.768-3.216 0-1.408.256-2.48.768-3.216.52-.744 1.272-1.116 2.256-1.116.984 0 1.732.368 2.244 1.104.52.736.78 1.808.78 3.216 0 1.416-.26 2.492-.78 3.228-.512.736-1.26 1.104-2.244 1.104Zm0-.996c.616 0 1.068-.268 1.356-.804.288-.536.432-1.38.432-2.532 0-1.144-.144-1.98-.432-2.508-.288-.536-.74-.804-1.356-.804-.616 0-1.068.268-1.356.804-.288.528-.432 1.364-.432 2.508s.144 1.988.432 2.532c.288.536.74.804 1.356.804Zm7.148 1.212-.84-.48 4.98-8.604.84.48-4.98 8.604Zm-.876-3.708c-.648 0-1.156-.22-1.524-.66-.368-.44-.552-1.084-.552-1.932 0-.848.184-1.488.552-1.92.368-.44.876-.66 1.524-.66.656 0 1.168.22 1.536.66.368.432.552 1.072.552 1.92 0 .856-.184 1.504-.552 1.944-.368.432-.88.648-1.536.648Zm0-.816c.352 0 .612-.14.78-.42.168-.288.252-.74.252-1.356 0-.608-.084-1.052-.252-1.332-.168-.28-.428-.42-.78-.42-.352 0-.612.14-.78.42-.16.272-.24.716-.24 1.332 0 .616.08 1.068.24 1.356.168.28.428.42.78.42Zm5.892 4.296c-.656 0-1.168-.216-1.536-.648-.368-.44-.552-1.088-.552-1.944 0-.848.184-1.488.552-1.92.368-.44.88-.66 1.536-.66.648 0 1.156.22 1.524.66.376.432.564 1.072.564 1.92 0 .848-.184 1.492-.552 1.932-.368.44-.88.66-1.536.66Zm0-.816c.352 0 .608-.14.768-.42.168-.288.252-.74.252-1.356 0-.608-.084-1.052-.252-1.332-.168-.288-.424-.432-.768-.432-.352 0-.612.14-.78.42-.168.28-.252.728-.252 1.344 0 .616.084 1.068.252 1.356.168.28.428.42.78.42Z"/><g opacity=".7"><path fill="#fff" fill-rule="evenodd" d="M156 396.5h997.16Z" clip-rule="evenodd"/><path stroke="#EAEAEA" stroke-linecap="square" d="M156 396.5h997.16"/><path fill="#fff" fill-rule="evenodd" d="M156 337.5h997.16Z" clip-rule="evenodd"/><path stroke="#EAEAEA" stroke-linecap="square" d="M156 337.5h997.16"/><path fill="#fff" fill-rule="evenodd" d="M156 278.5h997.16Z" clip-rule="evenodd"/><path stroke="#EAEAEA" stroke-linecap="square" d="M156 278.5h997.16"/><path fill="#fff" fill-rule="evenodd" d="M156 219.5h997.16Z" clip-rule="evenodd"/><path stroke="#EAEAEA" stroke-linecap="square" d="M156 219.5h997.16"/><path fill="#fff" fill-rule="evenodd" d="M156 160.5h997.16Z" clip-rule="evenodd"/><path stroke="#EAEAEA" stroke-linecap="square" d="M156 160.5h997.16"/></g><path fill="#2B3034" fill-opacity=".4" d="M86.816 338.264v.984H85.58V341h-1.212v-1.752h-3.804v-.924l4.008-5.784h1.008v5.724h1.236Zm-5.04 0h2.592v-3.744l-2.592 3.744Zm9.02 2.832c-.985 0-1.737-.368-2.257-1.104-.512-.736-.768-1.808-.768-3.216 0-1.408.256-2.48.768-3.216.52-.744 1.272-1.116 2.256-1.116.984 0 1.732.368 2.244 1.104.52.736.78 1.808.78 3.216 0 1.416-.26 2.492-.78 3.228-.512.736-1.26 1.104-2.244 1.104Zm0-.996c.615 0 1.067-.268 1.355-.804.288-.536.432-1.38.432-2.532 0-1.144-.144-1.98-.432-2.508-.288-.536-.74-.804-1.356-.804-.616 0-1.068.268-1.356.804-.288.528-.432 1.364-.432 2.508s.144 1.988.432 2.532c.288.536.74.804 1.356.804Zm7.147 1.212-.84-.48 4.98-8.604.84.48-4.98 8.604Zm-.876-3.708c-.648 0-1.156-.22-1.524-.66-.368-.44-.552-1.084-.552-1.932 0-.848.184-1.488.552-1.92.368-.44.876-.66 1.524-.66.656 0 1.168.22 1.536.66.368.432.552 1.072.552 1.92 0 .856-.184 1.504-.552 1.944-.368.432-.88.648-1.536.648Zm0-.816c.352 0 .612-.14.78-.42.168-.288.252-.74.252-1.356 0-.608-.084-1.052-.252-1.332-.168-.28-.428-.42-.78-.42-.352 0-.612.14-.78.42-.16.272-.24.716-.24 1.332 0 .616.08 1.068.24 1.356.168.28.428.42.78.42Zm5.892 4.296c-.656 0-1.168-.216-1.536-.648-.368-.44-.552-1.088-.552-1.944 0-.848.184-1.488.552-1.92.368-.44.88-.66 1.536-.66.648 0 1.156.22 1.524.66.376.432.564 1.072.564 1.92 0 .848-.184 1.492-.552 1.932-.368.44-.88.66-1.536.66Zm0-.816c.352 0 .608-.14.768-.42.168-.288.252-.74.252-1.356 0-.608-.084-1.052-.252-1.332-.168-.288-.424-.432-.768-.432-.352 0-.612.14-.78.42-.168.28-.252.728-.252 1.344 0 .616.084 1.068.252 1.356.168.28.428.42.78.42Zm-18.927-63.632c.512 0 .964.116 1.356.348.4.224.708.54.924.948.224.408.336.876.336 1.404 0 .528-.12 1.004-.36 1.428a2.53 2.53 0 0 1-.984.984c-.424.232-.9.348-1.428.348-1.048 0-1.856-.356-2.424-1.068-.56-.72-.84-1.744-.84-3.072 0-.944.132-1.752.396-2.424.264-.68.648-1.196 1.152-1.548.504-.36 1.104-.54 1.8-.54.496 0 .98.088 1.452.264.472.176.884.428 1.236.756l-.444.912c-.752-.616-1.488-.924-2.208-.924-.688 0-1.22.304-1.596.912-.376.6-.564 1.456-.564 2.568v.036c.176-.416.46-.74.852-.972.4-.24.848-.36 1.344-.36Zm-.216 4.452c.496 0 .892-.156 1.188-.468.296-.32.444-.74.444-1.26s-.152-.936-.456-1.248c-.296-.312-.692-.468-1.188-.468s-.904.16-1.224.48c-.32.312-.48.724-.48 1.236s.156.928.468 1.248c.32.32.736.48 1.248.48Zm6.968 1.008c-.984 0-1.736-.368-2.256-1.104-.512-.736-.768-1.808-.768-3.216 0-1.408.256-2.48.768-3.216.52-.744 1.272-1.116 2.256-1.116.984 0 1.732.368 2.244 1.104.52.736.78 1.808.78 3.216 0 1.416-.26 2.492-.78 3.228-.512.736-1.26 1.104-2.244 1.104Zm0-.996c.616 0 1.068-.268 1.356-.804.288-.536.432-1.38.432-2.532 0-1.144-.144-1.98-.432-2.508-.288-.536-.74-.804-1.356-.804-.616 0-1.068.268-1.356.804-.288.528-.432 1.364-.432 2.508s.144 1.988.432 2.532c.288.536.74.804 1.356.804Zm7.147 1.212-.84-.48 4.98-8.604.84.48-4.98 8.604Zm-.876-3.708c-.648 0-1.156-.22-1.524-.66-.368-.44-.552-1.084-.552-1.932 0-.848.184-1.488.552-1.92.368-.44.876-.66 1.524-.66.656 0 1.168.22 1.536.66.368.432.552 1.072.552 1.92 0 .856-.184 1.504-.552 1.944-.368.432-.88.648-1.536.648Zm0-.816c.352 0 .612-.14.78-.42.168-.288.252-.74.252-1.356 0-.608-.084-1.052-.252-1.332-.168-.28-.428-.42-.78-.42-.352 0-.612.14-.78.42-.16.272-.24.716-.24 1.332 0 .616.08 1.068.24 1.356.168.28.428.42.78.42Zm5.892 4.296c-.656 0-1.168-.216-1.536-.648-.368-.44-.552-1.088-.552-1.944 0-.848.184-1.488.552-1.92.368-.44.88-.66 1.536-.66.648 0 1.156.22 1.524.66.376.432.564 1.072.564 1.92 0 .848-.184 1.492-.552 1.932-.368.44-.88.66-1.536.66Zm0-.816c.352 0 .608-.14.768-.42.168-.288.252-.74.252-1.356 0-.608-.084-1.052-.252-1.332-.168-.288-.424-.432-.768-.432-.352 0-.612.14-.78.42-.168.28-.252.728-.252 1.344 0 .616.084 1.068.252 1.356.168.28.428.42.78.42Zm-17.811-62.612c.496.144.88.4 1.152.768.272.368.408.808.408 1.32 0 .736-.272 1.312-.816 1.728-.536.408-1.296.612-2.28.612-.984 0-1.748-.204-2.292-.612-.536-.416-.804-.992-.804-1.728 0-.52.136-.964.408-1.332.28-.368.668-.62 1.164-.756a2.14 2.14 0 0 1-1.008-.756 2.045 2.045 0 0 1-.36-1.2c0-.696.256-1.244.768-1.644.512-.408 1.22-.612 2.124-.612.904 0 1.612.204 2.124.612.512.4.768.948.768 1.644 0 .456-.124.86-.372 1.212-.24.344-.568.592-.984.744ZM83.6 215.44c-.56 0-.984.12-1.272.36-.288.232-.432.568-.432 1.008 0 .456.144.804.432 1.044.288.24.712.36 1.272.36s.984-.12 1.272-.36c.288-.24.432-.588.432-1.044 0-.44-.144-.776-.432-1.008-.288-.24-.712-.36-1.272-.36Zm0 6.648c1.272 0 1.908-.476 1.908-1.428 0-.96-.636-1.44-1.908-1.44-1.272 0-1.908.48-1.908 1.44 0 .952.636 1.428 1.908 1.428Zm7.195 1.008c-.984 0-1.736-.368-2.256-1.104-.512-.736-.768-1.808-.768-3.216 0-1.408.256-2.48.768-3.216.52-.744 1.272-1.116 2.256-1.116.984 0 1.732.368 2.244 1.104.52.736.78 1.808.78 3.216 0 1.416-.26 2.492-.78 3.228-.512.736-1.26 1.104-2.244 1.104Zm0-.996c.616 0 1.068-.268 1.356-.804.288-.536.432-1.38.432-2.532 0-1.144-.144-1.98-.432-2.508-.288-.536-.74-.804-1.356-.804-.616 0-1.068.268-1.356.804-.288.528-.432 1.364-.432 2.508s.144 1.988.432 2.532c.288.536.74.804 1.356.804Zm7.148 1.212-.84-.48 4.98-8.604.84.48-4.98 8.604Zm-.876-3.708c-.648 0-1.156-.22-1.524-.66-.368-.44-.552-1.084-.552-1.932 0-.848.184-1.488.552-1.92.368-.44.876-.66 1.524-.66.656 0 1.168.22 1.536.66.368.432.552 1.072.552 1.92 0 .856-.184 1.504-.552 1.944-.368.432-.88.648-1.536.648Zm0-.816c.352 0 .612-.14.78-.42.168-.288.252-.74.252-1.356 0-.608-.084-1.052-.252-1.332-.168-.28-.428-.42-.78-.42-.352 0-.612.14-.78.42-.16.272-.24.716-.24 1.332 0 .616.08 1.068.24 1.356.168.28.428.42.78.42Zm5.892 4.296c-.656 0-1.168-.216-1.536-.648-.368-.44-.552-1.088-.552-1.944 0-.848.184-1.488.552-1.92.368-.44.88-.66 1.536-.66.648 0 1.156.22 1.524.66.376.432.564 1.072.564 1.92 0 .848-.184 1.492-.552 1.932-.368.44-.88.66-1.536.66Zm0-.816c.352 0 .608-.14.768-.42.168-.288.252-.74.252-1.356 0-.608-.084-1.052-.252-1.332-.168-.288-.424-.432-.768-.432-.352 0-.612.14-.78.42-.168.28-.252.728-.252 1.344 0 .616.084 1.068.252 1.356.168.28.428.42.78.42ZM84.56 162.98h1.86V164h-4.944v-1.02h1.848v-5.964l-1.476.9-.528-.924 2.352-1.452h.888v7.44Zm6.235 1.116c-.984 0-1.736-.368-2.256-1.104-.512-.736-.768-1.808-.768-3.216 0-1.408.256-2.48.768-3.216.52-.744 1.272-1.116 2.256-1.116.984 0 1.732.368 2.244 1.104.52.736.78 1.808.78 3.216 0 1.416-.26 2.492-.78 3.228-.512.736-1.26 1.104-2.244 1.104Zm0-.996c.616 0 1.068-.268 1.356-.804.288-.536.432-1.38.432-2.532 0-1.144-.144-1.98-.432-2.508-.288-.536-.74-.804-1.356-.804-.616 0-1.068.268-1.356.804-.288.528-.432 1.364-.432 2.508s.144 1.988.432 2.532c.288.536.74.804 1.356.804Zm7.196.996c-.984 0-1.736-.368-2.256-1.104-.512-.736-.768-1.808-.768-3.216 0-1.408.256-2.48.768-3.216.52-.744 1.272-1.116 2.256-1.116.984 0 1.732.368 2.244 1.104.52.736.78 1.808.78 3.216 0 1.416-.26 2.492-.78 3.228-.512.736-1.26 1.104-2.244 1.104Zm0-.996c.616 0 1.068-.268 1.356-.804.288-.536.432-1.38.432-2.532 0-1.144-.144-1.98-.432-2.508-.288-.536-.74-.804-1.356-.804-.616 0-1.068.268-1.356.804-.288.528-.432 1.364-.432 2.508s.144 1.988.432 2.532c.288.536.74.804 1.356.804Zm7.147 1.212-.84-.48 4.98-8.604.84.48-4.98 8.604Zm-.876-3.708c-.648 0-1.156-.22-1.524-.66-.368-.44-.552-1.084-.552-1.932 0-.848.184-1.488.552-1.92.368-.44.876-.66 1.524-.66.656 0 1.168.22 1.536.66.368.432.552 1.072.552 1.92 0 .856-.184 1.504-.552 1.944-.368.432-.88.648-1.536.648Zm0-.816c.352 0 .612-.14.78-.42.168-.288.252-.74.252-1.356 0-.608-.084-1.052-.252-1.332-.168-.28-.428-.42-.78-.42-.352 0-.612.14-.78.42-.16.272-.24.716-.24 1.332 0 .616.08 1.068.24 1.356.168.28.428.42.78.42Zm5.892 4.296c-.656 0-1.168-.216-1.536-.648-.368-.44-.552-1.088-.552-1.944 0-.848.184-1.488.552-1.92.368-.44.88-.66 1.536-.66.648 0 1.156.22 1.524.66.376.432.564 1.072.564 1.92 0 .848-.184 1.492-.552 1.932-.368.44-.88.66-1.536.66Zm0-.816c.352 0 .608-.14.768-.42.168-.288.252-.74.252-1.356 0-.608-.084-1.052-.252-1.332-.168-.288-.424-.432-.768-.432-.352 0-.612.14-.78.42-.168.28-.252.728-.252 1.344 0 .616.084 1.068.252 1.356.168.28.428.42.78.42Z"/><path fill="url(#b)" fill-rule="evenodd" d="m156 400 6.317-21.614 22.146-.928 15.48-8.107 16.183-.446 11.794-11.921 10.373-30.99 6.649-11.088 17.759 23.128 14.443 3.52 10.568-6.715 12.751-29.598 36.561 60.013 15.052-25.848 17.258 12.974 9.302-19.781 1.814-9.49 14.009-9.692 7.235-13.17 7.996 18.397-1.323 12.08 7.376 1.787 5.724-5.378 14.937-121.49 13.905 147.993 12.383-15.913v-9.088l10.584-9.391 4.956-7.198 9.12-10.826 21.682 11.288 10.793 6.136 8.713-3.972 15.197 17.852 22.106-35.086 6.467 19.133 13.861 13.237 13.436-4.24 6.276-9 10.046-4.065 1.266-7.727 11.463-18.999 16.83 5.396 5.132-16.887 23.078 110.775 16.453-22.152 21.681-1.549 25.981 15.722 10.093-61.328 12.662 3.452 5.959-7.208 3.357 2.302 6.299-.702 3.599 3.101 9.999 2.023.178 6.862 11.952 4.35 14.934-.962.785-11.487-11.254-75.173 26.226 30.82 13.123 10.355 32.835-21.176 18.529 15.057h12.616l8.135 9.444 9.881 10.626 52.78 3.782 8.483-15.443 35.576 44.024 20.47-38.628 21.04 13.557 19.86-17.048 21.97 13.538 16.6 8.833 9.33-2.7 10.29-7.106 9.88-9.074V400H156Z" clip-rule="evenodd"/><path stroke="#7FEE43" stroke-width="1.5" d="m156 401 6.383-22.427 22.142-.93 15.478-8.118 16.181-.446 11.791-11.937 10.371-31.033 6.786-11.103 17.619 23.16 14.44 3.524 10.567-6.723 12.553-30.105 36.75 60.561 15.05-25.884 17.255 12.992 9.3-19.808 1.815-9.503 14.006-9.705 7.234-13.189 7.995 18.423-1.323 12.097 7.375 1.789 5.722-5.385 14.914-121.607 13.924 148.147 12.38-15.936v-9.1l10.584-9.404 4.954-7.208 9.119-10.841 21.678 11.304 10.792 6.144 8.711-3.977 15.195 17.876 22.102-35.134 6.466 19.159 13.859 13.255 13.434-4.245 6.274-9.012 10.045-4.071 1.266-7.738 11.461-19.025 16.827 5.403 5.227-15.074 22.978 109.091 16.45-22.182 21.678-1.552 25.977 15.744 10.091-61.412 12.66 3.457 5.958-7.218 3.356 2.306 6.298-.704 3.599 3.105 9.997 2.026.178 6.872 11.95 4.356 14.932-.964.785-11.503-11.213-75.276 26.182 30.862 13.121 10.37 32.83-21.205 18.257 15.078h12.61l18.264 20.097 24.778 3.787h27.723l8.48-15.464 19.429 24.189 16.13 20.82 20.95-39.606s19.17 14.654 21.37 13.622c2.21-1.032 20.53-17.213 20.53-17.213l17.77 12.677 21.24 11.816 17.65-10.841 8.31-10.061h-2.39 1.28"/><path fill="#1F4914" fill-rule="evenodd" d="M396 169a2 2 0 0 1 2-2h76a2 2 0 0 1 2 2v18a2 2 0 0 1-2 2h-32l-6 5.977-6-5.977h-32a2 2 0 0 1-2-2v-18Z" clip-rule="evenodd"/><path fill="#fff" d="M410.128 175.576c.496 0 .94.116 1.332.348.392.224.696.544.912.96.224.408.336.876.336 1.404 0 .544-.12 1.032-.36 1.464-.24.424-.576.756-1.008.996-.432.24-.92.36-1.464.36-1.072 0-1.9-.36-2.484-1.08-.576-.728-.864-1.764-.864-3.108 0-.928.136-1.728.408-2.4.28-.68.68-1.196 1.2-1.548.52-.36 1.136-.54 1.848-.54.504 0 .996.088 1.476.264.48.168.896.408 1.248.72l-.516 1.128c-.744-.584-1.46-.876-2.148-.876-.616 0-1.096.264-1.44.792-.344.52-.524 1.276-.54 2.268.184-.36.46-.64.828-.84.368-.208.78-.312 1.236-.312Zm-.324 4.308c.44 0 .788-.14 1.044-.42.264-.28.396-.656.396-1.128 0-.464-.132-.836-.396-1.116-.264-.28-.616-.42-1.056-.42-.44 0-.8.144-1.08.432-.272.28-.408.648-.408 1.104 0 .464.136.84.408 1.128.28.28.644.42 1.092.42Zm10.267-1.74v1.2h-1.188V181h-1.512v-1.656h-3.672v-1.14l3.936-5.664h1.248v5.604h1.188Zm-4.932 0h2.232v-3.228l-2.232 3.228Zm7.58 1.2v1.092c0 .416-.072.792-.216 1.128-.144.344-.388.688-.732 1.032l-.612-.48c.376-.4.592-.772.648-1.116h-.768v-1.656h1.68Zm5.556-2.688c.496.128.876.372 1.14.732.272.352.408.792.408 1.32 0 .736-.272 1.32-.816 1.752-.536.424-1.268.636-2.196.636a5.164 5.164 0 0 1-1.644-.264c-.52-.176-.952-.416-1.296-.72l.516-1.128c.736.584 1.524.876 2.364.876.536 0 .936-.104 1.2-.312.264-.216.396-.54.396-.972 0-.424-.136-.736-.408-.936-.264-.208-.676-.312-1.236-.312h-1.116v-1.224h.912c1.096 0 1.644-.412 1.644-1.236 0-.384-.12-.68-.36-.888-.232-.208-.564-.312-.996-.312-.376 0-.76.076-1.152.228-.384.144-.76.36-1.128.648l-.516-1.128c.336-.304.764-.544 1.284-.72a5.054 5.054 0 0 1 1.608-.264c.832 0 1.496.204 1.992.612.496.4.744.944.744 1.632a2.21 2.21 0 0 1-.372 1.236 1.939 1.939 0 0 1-.972.744Zm6.416-1.08c.496 0 .94.116 1.332.348.392.224.696.544.912.96.224.408.336.876.336 1.404 0 .544-.12 1.032-.36 1.464-.24.424-.576.756-1.008.996-.432.24-.92.36-1.464.36-1.072 0-1.9-.36-2.484-1.08-.576-.728-.864-1.764-.864-3.108 0-.928.136-1.728.408-2.4.28-.68.68-1.196 1.2-1.548.52-.36 1.136-.54 1.848-.54.504 0 .996.088 1.476.264.48.168.896.408 1.248.72l-.516 1.128c-.744-.584-1.46-.876-2.148-.876-.616 0-1.096.264-1.44.792-.344.52-.524 1.276-.54 2.268.184-.36.46-.64.828-.84.368-.208.78-.312 1.236-.312Zm-.324 4.308c.44 0 .788-.14 1.044-.42.264-.28.396-.656.396-1.128 0-.464-.132-.836-.396-1.116-.264-.28-.616-.42-1.056-.42-.44 0-.8.144-1.08.432-.272.28-.408.648-.408 1.104 0 .464.136.84.408 1.128.28.28.644.42 1.092.42Zm7.519-4.308c.496 0 .94.116 1.332.348.392.224.696.544.912.96.224.408.336.876.336 1.404 0 .544-.12 1.032-.36 1.464-.24.424-.576.756-1.008.996-.432.24-.92.36-1.464.36-1.072 0-1.9-.36-2.484-1.08-.576-.728-.864-1.764-.864-3.108 0-.928.136-1.728.408-2.4.28-.68.68-1.196 1.2-1.548.52-.36 1.136-.54 1.848-.54.504 0 .996.088 1.476.264.48.168.896.408 1.248.72l-.516 1.128c-.744-.584-1.46-.876-2.148-.876-.616 0-1.096.264-1.44.792-.344.52-.524 1.276-.54 2.268.184-.36.46-.64.828-.84.368-.208.78-.312 1.236-.312Zm-.324 4.308c.44 0 .788-.14 1.044-.42.264-.28.396-.656.396-1.128 0-.464-.132-.836-.396-1.116-.264-.28-.616-.42-1.056-.42-.44 0-.8.144-1.08.432-.272.28-.408.648-.408 1.104 0 .464.136.84.408 1.128.28.28.644.42 1.092.42Zm10.267-1.74v1.2h-1.188V181h-1.512v-1.656h-3.672v-1.14l3.936-5.664h1.248v5.604h1.188Zm-4.932 0h2.232v-3.228l-2.232 3.228Zm5.899 1.2h1.68V181h-1.68v-1.656Zm2.989-6.804h5.892v1.152l-3.84 7.308h-1.644l3.828-7.212h-4.236v-1.248Zm7.195 0h5.892v1.152l-3.84 7.308h-1.644l3.828-7.212h-4.236v-1.248Z"/><path fill="#1F4914" fill-rule="evenodd" d="M436 205a4 4 0 1 0 0-8 4 4 0 0 0 0 8Z" clip-rule="evenodd"/><path fill="#79EE43" fill-rule="evenodd" d="M402 304a4 4 0 1 0 0-8 4 4 0 0 0 0 8Zm-65 64a4 4 0 1 0 0-8 4 4 0 0 0 0 8Zm-36-60a4 4 0 1 0 0-8 4 4 0 0 0 0 8Zm-56 9a4 4 0 1 0 0-8 4 4 0 0 0 0 8Zm-30 55a4 4 0 1 0 0-8 4 4 0 0 0 0 8Zm-58 30a4 4 0 1 0 0-8 4 4 0 0 0 0 8Zm330-97a4 4 0 1 0 0-8 4 4 0 0 0 0 8Zm79-6a4 4 0 1 0 0-8 4 4 0 0 0 0 8Zm85-21a4 4 0 1 0 0-8 4 4 0 0 0 0 8Zm22 110a4 4 0 1 0 0-8 4 4 0 0 0 0 8Zm65-8a4 4 0 1 0 0-8 4 4 0 0 0 0 8Zm69-134a4 4 0 1 0 0-8 4 4 0 0 0 0 8Zm9 85a4 4 0 1 0 0-8 4 4 0 0 0 0 8Zm29-45a4 4 0 1 0 0-8 4 4 0 0 0 0 8Zm32-20a4 4 0 1 0 0-8 4 4 0 0 0 0 8Zm112 23a4 4 0 1 0 0-8 4 4 0 0 0 0 8Zm35 46a4 4 0 1 0 0-8 4 4 0 0 0 0 8Zm21-41a4 4 0 1 0 0-8 4 4 0 0 0 0 8Zm42-2a4 4 0 1 0 0-8 4 4 0 0 0 0 8Z" clip-rule="evenodd"/><rect width="103.4" height="27.4" x="1050.3" y="80.3" fill="#FCFDFD" stroke="#D5D5D5" stroke-width=".6" rx="3.7"/><path fill="#2B3034" fill-opacity=".4" d="m1136.86 91.268-3.86 4.026-3.86-4.026c-.3-.35-.61-.357-.91-.022-.31.336-.31.664 0 .985l4.31 4.55c.11.146.27.219.46.219s.35-.073.46-.219l4.31-4.55c.31-.321.31-.65 0-.985-.3-.335-.61-.328-.91.022Zm-63.16 6.828c-.8 0-1.5-.176-2.09-.528a3.564 3.564 0 0 1-1.36-1.5c-.32-.648-.48-1.412-.48-2.292 0-.888.16-1.656.47-2.304.32-.656.78-1.156 1.37-1.5.59-.352 1.29-.528 2.09-.528.81 0 1.51.176 2.1.528.59.344 1.04.844 1.35 1.5.32.648.48 1.412.48 2.292 0 .88-.16 1.648-.48 2.304a3.418 3.418 0 0 1-1.35 1.5c-.59.352-1.29.528-2.1.528Zm0-1.008c.85 0 1.51-.288 1.98-.864.47-.576.71-1.396.71-2.46s-.24-1.88-.71-2.448c-.47-.576-1.13-.864-1.98-.864-.84 0-1.5.288-1.97.864-.46.568-.7 1.384-.7 2.448s.24 1.884.7 2.46c.47.576 1.13.864 1.97.864Zm8.04.996c-.59 0-1.1-.124-1.54-.372a2.54 2.54 0 0 1-1.01-1.044c-.23-.456-.35-.988-.35-1.596 0-.608.12-1.144.36-1.608.25-.464.59-.824 1.03-1.08.45-.256.97-.384 1.56-.384.41 0 .8.068 1.18.204.38.136.69.32.93.552l-.37.864c-.53-.432-1.07-.648-1.64-.648-.56 0-1 .184-1.32.552-.31.36-.47.872-.47 1.536 0 .656.16 1.164.47 1.524.31.352.75.528 1.32.528.57 0 1.11-.216 1.64-.648l.37.876c-.25.232-.57.416-.96.552-.38.128-.78.192-1.2.192Zm6.03-.936c.19 0 .37-.012.54-.036l-.06.924c-.2.032-.41.048-.62.048-.76 0-1.33-.184-1.71-.552-.36-.376-.55-.916-.55-1.62V93.08h-1.14v-.936h1.14V90.38h1.21v1.764h1.61v.936h-1.61v2.784c0 .856.4 1.284 1.19 1.284Zm4 .936c-.57 0-1.08-.124-1.52-.372-.43-.248-.77-.6-1.01-1.056-.23-.464-.35-1-.35-1.608 0-.616.12-1.152.35-1.608.24-.464.58-.82 1.01-1.068.44-.248.95-.372 1.52-.372.58 0 1.08.124 1.52.372.44.248.77.604 1 1.068.24.456.36.992.36 1.608 0 .608-.12 1.144-.36 1.608-.23.456-.56.808-1 1.056-.44.248-.94.372-1.52.372Zm0-.96c.54 0 .95-.176 1.23-.528.29-.352.43-.868.43-1.548 0-.672-.14-1.184-.43-1.536-.29-.36-.7-.54-1.23-.54-.52 0-.93.18-1.22.54-.29.352-.43.864-.43 1.536 0 .68.14 1.196.42 1.548.29.352.7.528 1.23.528Zm7.38-5.124c.51 0 .96.124 1.35.372.4.248.7.6.92 1.056.22.456.33.988.33 1.596 0 .6-.11 1.132-.33 1.596-.22.464-.53.824-.93 1.08-.39.256-.84.384-1.34.384-.44 0-.83-.092-1.17-.276a1.875 1.875 0 0 1-.76-.816V98H1096v-8.46h1.22v3.564c.17-.352.43-.624.76-.816.34-.192.73-.288 1.17-.288Zm-.29 5.124c.52 0 .92-.184 1.21-.552.3-.368.45-.884.45-1.548 0-.656-.15-1.16-.44-1.512-.28-.36-.69-.54-1.22-.54s-.94.18-1.22.54c-.28.36-.42.872-.42 1.536s.14 1.176.42 1.536c.28.36.69.54 1.22.54Zm9.25-1.848h-4.14c.09 1.24.7 1.86 1.85 1.86.67 0 1.28-.22 1.82-.66l.37.852c-.27.232-.6.416-1 .552-.4.136-.81.204-1.23.204-.93 0-1.67-.268-2.22-.804-.53-.536-.8-1.276-.8-2.22 0-.6.11-1.132.35-1.596.24-.464.57-.824.99-1.08.43-.256.92-.384 1.47-.384.79 0 1.41.256 1.86.768.45.512.68 1.22.68 2.124v.384Zm-2.52-2.388c-.46 0-.84.148-1.12.444-.27.288-.43.704-.49 1.248h3.09c-.03-.544-.17-.96-.42-1.248-.25-.296-.6-.444-1.06-.444Zm7.42.132-.73.072c-.58.056-.99.232-1.25.528-.25.296-.37.672-.37 1.128V98h-1.21v-5.856h1.17v1.02c.31-.688.95-1.068 1.91-1.14l.4-.024.08 1.02Z"/><path fill="#202224" d="M87.56 103.216c-1.296 0-2.512-.176-3.648-.528-1.136-.352-2.096-.848-2.88-1.488l1.032-2.256a8.504 8.504 0 0 0 2.568 1.368 9.753 9.753 0 0 0 2.952.432c1.168 0 2.064-.2 2.688-.6.64-.416.96-.992.96-1.728 0-.64-.296-1.128-.888-1.464-.576-.336-1.544-.656-2.904-.96-1.408-.304-2.552-.656-3.432-1.056-.88-.4-1.544-.912-1.992-1.536-.448-.624-.672-1.416-.672-2.376 0-.992.272-1.88.816-2.664.544-.784 1.312-1.392 2.304-1.824.992-.448 2.136-.672 3.432-.672 1.184 0 2.312.184 3.384.552 1.072.352 1.952.84 2.64 1.464l-1.032 2.256c-1.504-1.2-3.168-1.8-4.992-1.8-1.088 0-1.952.224-2.592.672-.624.432-.936 1.04-.936 1.824 0 .656.28 1.16.84 1.512.56.352 1.512.68 2.856.984 1.424.32 2.576.68 3.456 1.08.896.384 1.576.88 2.04 1.488.48.608.72 1.376.72 2.304 0 1.008-.272 1.896-.816 2.664-.528.752-1.304 1.336-2.328 1.752-1.008.4-2.2.6-3.576.6Zm14.345-12.24c1.648 0 2.872.4 3.672 1.2.8.8 1.2 2.032 1.2 3.696V103h-2.856v-1.8a3.114 3.114 0 0 1-1.296 1.464c-.576.352-1.248.528-2.016.528-.784 0-1.496-.16-2.136-.48a3.8 3.8 0 0 1-1.512-1.32 3.335 3.335 0 0 1-.552-1.872c0-.864.216-1.544.648-2.04.448-.496 1.168-.856 2.16-1.08.992-.224 2.36-.336 4.104-.336h.6v-.552c0-.8-.176-1.376-.528-1.728-.336-.352-.904-.528-1.704-.528a6.36 6.36 0 0 0-1.968.336 9.507 9.507 0 0 0-1.992.888l-.84-2.064c.656-.416 1.448-.76 2.376-1.032.928-.272 1.808-.408 2.64-.408Zm-.696 10.056c.8 0 1.448-.264 1.944-.792.512-.544.768-1.24.768-2.088v-.504h-.432c-1.072 0-1.904.048-2.496.144-.592.096-1.016.264-1.272.504s-.384.568-.384.984c0 .512.176.936.528 1.272.352.32.8.48 1.344.48Zm8.617 1.968V86.08h3V103h-3Zm16.389-5.328h-7.992c.096 1.088.424 1.896.984 2.424s1.36.792 2.4.792c1.296 0 2.48-.416 3.552-1.248l.864 2.064c-.544.448-1.232.808-2.064 1.08a7.772 7.772 0 0 1-2.472.408c-1.92 0-3.44-.544-4.56-1.632-1.104-1.088-1.656-2.576-1.656-4.464 0-1.2.24-2.264.72-3.192a5.26 5.26 0 0 1 2.016-2.16c.88-.512 1.872-.768 2.976-.768 1.616 0 2.888.52 3.816 1.56.944 1.04 1.416 2.472 1.416 4.296v.84Zm-5.16-4.584c-.8 0-1.448.256-1.944.768-.48.512-.776 1.248-.888 2.208h5.424c-.032-.976-.272-1.712-.72-2.208-.448-.512-1.072-.768-1.872-.768Zm11.934 10.104c-1.04 0-2-.128-2.88-.384-.864-.256-1.6-.624-2.208-1.104l.84-2.088c1.248.912 2.68 1.368 4.296 1.368.688 0 1.208-.112 1.56-.336.368-.224.552-.544.552-.96 0-.352-.128-.624-.384-.816-.24-.192-.68-.368-1.32-.528l-1.92-.432c-1.088-.24-1.896-.632-2.424-1.176-.528-.544-.792-1.248-.792-2.112 0-.72.2-1.352.6-1.896.416-.56.984-.992 1.704-1.296.736-.304 1.584-.456 2.544-.456a7.54 7.54 0 0 1 2.4.384 6.666 6.666 0 0 1 2.064 1.08l-.84 2.04c-1.216-.88-2.432-1.32-3.648-1.32-.656 0-1.168.12-1.536.36-.368.24-.552.576-.552 1.008 0 .32.112.584.336.792.24.208.616.368 1.128.48l1.992.456c1.168.256 2.024.664 2.568 1.224.544.544.816 1.264.816 2.16 0 1.088-.44 1.952-1.32 2.592-.88.64-2.072.96-3.576.96Zm14.108-17.112h6.24c2.768 0 4.912.744 6.432 2.232 1.536 1.472 2.304 3.544 2.304 6.216s-.768 4.752-2.304 6.24c-1.52 1.488-3.664 2.232-6.432 2.232h-6.24V86.08Zm6.048 14.4c3.888 0 5.832-1.984 5.832-5.952 0-3.952-1.944-5.928-5.832-5.928h-2.952v11.88h2.952Zm22.078-2.808h-7.992c.096 1.088.424 1.896.984 2.424s1.36.792 2.4.792c1.296 0 2.48-.416 3.552-1.248l.864 2.064c-.544.448-1.232.808-2.064 1.08a7.772 7.772 0 0 1-2.472.408c-1.92 0-3.44-.544-4.56-1.632-1.104-1.088-1.656-2.576-1.656-4.464 0-1.2.24-2.264.72-3.192a5.26 5.26 0 0 1 2.016-2.16c.88-.512 1.872-.768 2.976-.768 1.616 0 2.888.52 3.816 1.56.944 1.04 1.416 2.472 1.416 4.296v.84Zm-5.16-4.584c-.8 0-1.448.256-1.944.768-.48.512-.776 1.248-.888 2.208h5.424c-.032-.976-.272-1.712-.72-2.208-.448-.512-1.072-.768-1.872-.768Zm13.45 7.848c.352 0 .72-.024 1.104-.072l-.144 2.232c-.48.048-.92.072-1.32.072-1.648 0-2.864-.376-3.648-1.128-.784-.768-1.176-1.904-1.176-3.408V93.52h-2.256v-2.256h2.256V87.76h3v3.504h3.096v2.256h-3.096v5.064c0 1.568.728 2.352 2.184 2.352Zm7.9-9.96c1.648 0 2.872.4 3.672 1.2.8.8 1.2 2.032 1.2 3.696V103h-2.856v-1.8a3.114 3.114 0 0 1-1.296 1.464c-.576.352-1.248.528-2.016.528-.784 0-1.496-.16-2.137-.48a3.804 3.804 0 0 1-1.511-1.32 3.335 3.335 0 0 1-.552-1.872c0-.864.216-1.544.648-2.04.448-.496 1.168-.856 2.16-1.08.992-.224 2.36-.336 4.104-.336h.6v-.552c0-.8-.176-1.376-.528-1.728-.336-.352-.904-.528-1.704-.528-.624 0-1.28.112-1.968.336a9.507 9.507 0 0 0-1.992.888l-.841-2.064c.657-.416 1.449-.76 2.377-1.032.928-.272 1.808-.408 2.64-.408Zm-.696 10.056c.8 0 1.448-.264 1.944-.792.512-.544.768-1.24.768-2.088v-.504h-.432c-1.072 0-1.904.048-2.496.144-.592.096-1.016.264-1.272.504s-.384.568-.384.984c0 .512.176.936.528 1.272.352.32.8.48 1.344.48Zm8.616 1.968V91.264h3V103h-3Zm-.168-17.184h3.312v2.952h-3.312v-2.952ZM205.427 103V86.08h3V103h-3Zm10.414.192c-1.04 0-2-.128-2.88-.384-.864-.256-1.6-.624-2.208-1.104l.84-2.088c1.248.912 2.68 1.368 4.296 1.368.688 0 1.208-.112 1.56-.336.368-.224.552-.544.552-.96 0-.352-.128-.624-.384-.816-.24-.192-.68-.368-1.32-.528l-1.92-.432c-1.088-.24-1.896-.632-2.424-1.176-.528-.544-.792-1.248-.792-2.112 0-.72.2-1.352.6-1.896.416-.56.984-.992 1.704-1.296.736-.304 1.584-.456 2.544-.456a7.54 7.54 0 0 1 2.4.384 6.666 6.666 0 0 1 2.064 1.08l-.84 2.04c-1.216-.88-2.432-1.32-3.648-1.32-.656 0-1.168.12-1.536.36-.368.24-.552.576-.552 1.008 0 .32.112.584.336.792.24.208.616.368 1.128.48l1.992.456c1.168.256 2.024.664 2.568 1.224.544.544.816 1.264.816 2.16 0 1.088-.44 1.952-1.32 2.592-.88.64-2.072.96-3.576.96Z"/><defs><linearGradient id="b" x1="405.5" x2="405.5" y1="302.822" y2="400" gradientUnits="userSpaceOnUse"><stop stop-color="#6BEE43" stop-opacity=".16"/><stop offset="1" stop-color="#fff" stop-opacity=".177"/></linearGradient><filter id="a" width="1246" height="552" x="0" y="0" color-interpolation-filters="sRGB" filterUnits="userSpaceOnUse"><feFlood flood-opacity="0" result="BackgroundImageFix"/><feColorMatrix in="SourceAlpha" result="hardAlpha" values="0 0 0 0 0 0 0 0 0 0 0 0 0 0 0 0 0 0 127 0"/><feOffset dx="6" dy="6"/><feGaussianBlur stdDeviation="27"/><feColorMatrix values="0 0 0 0 0 0 0 0 0 0 0 0 0 0 0 0 0 0 0.05 0"/><feBlend in2="BackgroundImageFix" result="effect1_dropShadow_202_4702"/><feBlend in="SourceGraphic" in2="effect1_dropShadow_202_4702" result="shape"/></filter></defs></svg>