<svg viewBox="0 0 468 473" xmlns:xlink="http://www.w3.org/1999/xlink" xmlns="http://www.w3.org/2000/svg" width="468" height="473" fill="none"><g filter="url(#a)"><rect width="360" height="365" x="48" y="48" fill="#fff" rx="14"/></g><path stroke="#5BB600" stroke-linecap="round" stroke-width="4" d="M95 362.067s13.757-42.709 20.455-59.697c7.09-17.985 14.045-32.707 20.864-44.166 7.004-11.77 13.864-20.097 20.582-24.983 5.496-3.996 19.315-4.584 20.806-4.152 7.773 2.249 14.388 7.728 20.669 14.763 7.001 7.841 13.587 17.617 20.9 27.013 6.113 7.854 12.734 15.443 20.53 21.415 6.054 4.638 12.818 8.3 20.602 10.352 4.459 1.176 18.659 1.652 20.766 1.318 6.935-1.097 13.842-3.944 20.607-8.159 7.226-4.502 14.29-10.565 21.057-17.727 7.283-7.708 14.221-16.688 20.644-26.363 7.769-11.703 14.783-24.421 20.741-37.133 12.748-27.199 20.66-54.367 20.777-71.481"/><path fill="#5BB600" fill-rule="evenodd" stroke="#fff" stroke-width="1.4" d="M94 368a4 4 0 1 0 0-8 4 4 0 0 0 0 8Zm20-59a4 4 0 1 0 0-8 4 4 0 0 0 0 8Zm19-42a4 4 0 1 0 0-8 4 4 0 0 0 0 8Zm44-34a4 4 0 1 0 0-8 4 4 0 0 0 0 8Zm41 39a4 4 0 1 0 0-8 4 4 0 0 0 0 8Zm63 36a4 4 0 1 0 0-8 4 4 0 0 0 0 8Zm60-50a4 4 0 1 0 0-8 4 4 0 0 0 0 8Zm-23 29a4 4 0 1 0 0-8 4 4 0 0 0 0 8Zm60-104a4 4 0 1 0 0-8 4 4 0 0 0 0 8Zm7-35a4 4 0 1 0 0-8 4 4 0 0 0 0 8Zm-21 71a4 4 0 1 0 0-8 4 4 0 0 0 0 8Z" clip-rule="evenodd"/><path stroke="#10290A" stroke-linecap="round" stroke-width="4" d="M95 303s12.809-32.958 19.044-46.067c6.601-13.879 13.076-25.24 19.425-34.083 6.521-9.083 12.909-15.509 19.163-19.279 5.117-3.084 17.983-3.537 19.371-3.204 7.237 1.736 13.396 5.963 19.244 11.392 6.518 6.051 12.65 13.595 19.458 20.846 5.692 6.061 11.856 11.917 19.114 16.525 5.637 3.58 11.934 6.406 19.181 7.989 4.152.908 17.373 1.275 19.334 1.017 6.457-.846 12.888-3.043 19.186-6.296 6.728-3.474 13.305-8.153 19.605-13.679 6.781-5.949 13.241-12.879 19.22-20.345 7.233-9.031 13.764-18.845 19.311-28.655C357.525 168.172 364.891 147.207 365 134"/><path fill="#5BB600" fill-rule="evenodd" stroke="#10290A" stroke-width="1.4" d="M93.5 309c1.933 0 3.5-1.343 3.5-3s-1.567-3-3.5-3-3.5 1.343-3.5 3 1.567 3 3.5 3Zm19-46c1.933 0 3.5-1.343 3.5-3s-1.567-3-3.5-3-3.5 1.343-3.5 3 1.567 3 3.5 3Zm18-33c1.933 0 3.5-1.343 3.5-3s-1.567-3-3.5-3-3.5 1.343-3.5 3 1.567 3 3.5 3Zm41-27c1.933 0 3.5-1.343 3.5-3s-1.567-3-3.5-3-3.5 1.343-3.5 3 1.567 3 3.5 3Zm38 31c1.933 0 3.5-1.343 3.5-3s-1.567-3-3.5-3-3.5 1.343-3.5 3 1.567 3 3.5 3Zm59 28c1.933 0 3.5-1.343 3.5-3s-1.567-3-3.5-3-3.5 1.343-3.5 3 1.567 3 3.5 3Zm56-39c1.933 0 3.5-1.343 3.5-3s-1.567-3-3.5-3-3.5 1.343-3.5 3 1.567 3 3.5 3Zm-22 23c1.933 0 3.5-1.343 3.5-3s-1.567-3-3.5-3-3.5 1.343-3.5 3 1.567 3 3.5 3Zm56-82c1.933 0 3.5-1.343 3.5-3s-1.567-3-3.5-3-3.5 1.343-3.5 3 1.567 3 3.5 3Zm7-27c1.933 0 3.5-1.343 3.5-3s-1.567-3-3.5-3-3.5 1.343-3.5 3 1.567 3 3.5 3Zm-20 56c1.933 0 3.5-1.343 3.5-3s-1.567-3-3.5-3-3.5 1.343-3.5 3 1.567 3 3.5 3Z" clip-rule="evenodd"/><path stroke="#979797" stroke-linecap="square" stroke-width=".3" d="M94 363.5h298m-298-59h298m-298-59h298m-298-59h298m-298-59h298" opacity=".2"/><path fill="#292C2F" fill-opacity=".4" d="M369.504 390.98V392h-5.544v-.924l2.916-3.192c.376-.408.648-.78.816-1.116.168-.336.252-.668.252-.996 0-.432-.124-.76-.372-.984-.248-.224-.604-.336-1.068-.336-.792 0-1.576.308-2.352.924l-.432-.912c.336-.312.76-.56 1.272-.744a4.548 4.548 0 0 1 1.548-.276c.808 0 1.448.204 1.92.612.472.4.708.944.708 1.632 0 .488-.108.952-.324 1.392-.208.44-.56.932-1.056 1.476l-2.268 2.424h3.984Zm4.291 1.116c-.984 0-1.736-.368-2.256-1.104-.512-.736-.768-1.808-.768-3.216 0-1.408.256-2.48.768-3.216.52-.744 1.272-1.116 2.256-1.116.984 0 1.732.368 2.244 1.104.52.736.78 1.808.78 3.216 0 1.416-.26 2.492-.78 3.228-.512.736-1.26 1.104-2.244 1.104Zm0-.996c.616 0 1.068-.268 1.356-.804.288-.536.432-1.38.432-2.532 0-1.144-.144-1.98-.432-2.508-.288-.536-.74-.804-1.356-.804-.616 0-1.068.268-1.356.804-.288.528-.432 1.364-.432 2.508s.144 1.988.432 2.532c.288.536.74.804 1.356.804Zm8.156-.12h1.86V392h-4.944v-1.02h1.848v-5.964l-1.476.9-.528-.924 2.352-1.452h.888v7.44Zm5.971-7.536c1.048 0 1.852.36 2.412 1.08.568.712.852 1.732.852 3.06 0 .944-.136 1.756-.408 2.436-.264.672-.648 1.188-1.152 1.548-.496.352-1.096.528-1.8.528-.496 0-.98-.088-1.452-.264a3.701 3.701 0 0 1-1.224-.756l.432-.912c.768.616 1.504.924 2.208.924.688 0 1.22-.3 1.596-.9.376-.608.564-1.468.564-2.58v-.024a2.072 2.072 0 0 1-.864.972 2.565 2.565 0 0 1-1.332.348c-.504 0-.956-.112-1.356-.336a2.454 2.454 0 0 1-.936-.96c-.216-.408-.324-.876-.324-1.404 0-.528.12-1 .36-1.416a2.53 2.53 0 0 1 .984-.984c.424-.24.904-.36 1.44-.36Zm.06 4.452c.504 0 .912-.156 1.224-.468.32-.32.48-.736.48-1.248 0-.52-.156-.936-.468-1.248-.312-.32-.724-.48-1.236-.48-.496 0-.896.16-1.2.48-.296.312-.444.728-.444 1.248 0 .512.148.928.444 1.248.304.312.704.468 1.2.468Zm-87.478 3.084V392h-5.544v-.924l2.916-3.192c.376-.408.648-.78.816-1.116.168-.336.252-.668.252-.996 0-.432-.124-.76-.372-.984-.248-.224-.604-.336-1.068-.336-.792 0-1.576.308-2.352.924l-.432-.912c.336-.312.76-.56 1.272-.744a4.548 4.548 0 0 1 1.548-.276c.808 0 1.448.204 1.92.612.472.4.708.944.708 1.632 0 .488-.108.952-.324 1.392-.208.44-.56.932-1.056 1.476l-2.268 2.424h3.984Zm4.291 1.116c-.984 0-1.736-.368-2.256-1.104-.512-.736-.768-1.808-.768-3.216 0-1.408.256-2.48.768-3.216.52-.744 1.272-1.116 2.256-1.116.984 0 1.732.368 2.244 1.104.52.736.78 1.808.78 3.216 0 1.416-.26 2.492-.78 3.228-.512.736-1.26 1.104-2.244 1.104Zm0-.996c.616 0 1.068-.268 1.356-.804.288-.536.432-1.38.432-2.532 0-1.144-.144-1.98-.432-2.508-.288-.536-.74-.804-1.356-.804-.616 0-1.068.268-1.356.804-.288.528-.432 1.364-.432 2.508s.144 1.988.432 2.532c.288.536.74.804 1.356.804Zm8.156-.12h1.86V392h-4.944v-1.02h1.848v-5.964l-1.476.9-.528-.924 2.352-1.452h.888v7.44Zm7.771-3.324c.496.144.88.4 1.152.768.272.368.408.808.408 1.32 0 .736-.272 1.312-.816 1.728-.536.408-1.296.612-2.28.612-.984 0-1.748-.204-2.292-.612-.536-.416-.804-.992-.804-1.728 0-.52.136-.964.408-1.332.28-.368.668-.62 1.164-.756a2.14 2.14 0 0 1-1.008-.756 2.045 2.045 0 0 1-.36-1.2c0-.696.256-1.244.768-1.644.512-.408 1.22-.612 2.124-.612.904 0 1.612.204 2.124.612.512.4.768.948.768 1.644 0 .456-.124.86-.372 1.212-.24.344-.568.592-.984.744Zm-1.536-3.216c-.56 0-.984.12-1.272.36-.288.232-.432.568-.432 1.008 0 .456.144.804.432 1.044.288.24.712.36 1.272.36s.984-.12 1.272-.36c.288-.24.432-.588.432-1.044 0-.44-.144-.776-.432-1.008-.288-.24-.712-.36-1.272-.36Zm0 6.648c1.272 0 1.908-.476 1.908-1.428 0-.96-.636-1.44-1.908-1.44-1.272 0-1.908.48-1.908 1.44 0 .952.636 1.428 1.908 1.428Zm-87.682-.108V392h-5.544v-.924l2.916-3.192c.376-.408.648-.78.816-1.116.168-.336.252-.668.252-.996 0-.432-.124-.76-.372-.984-.248-.224-.604-.336-1.068-.336-.792 0-1.576.308-2.352.924l-.432-.912c.336-.312.76-.56 1.272-.744a4.548 4.548 0 0 1 1.548-.276c.808 0 1.448.204 1.92.612.472.4.708.944.708 1.632 0 .488-.108.952-.324 1.392-.208.44-.56.932-1.056 1.476l-2.268 2.424h3.984Zm4.291 1.116c-.984 0-1.736-.368-2.256-1.104-.512-.736-.768-1.808-.768-3.216 0-1.408.256-2.48.768-3.216.52-.744 1.272-1.116 2.256-1.116.984 0 1.732.368 2.244 1.104.52.736.78 1.808.78 3.216 0 1.416-.26 2.492-.78 3.228-.512.736-1.26 1.104-2.244 1.104Zm0-.996c.616 0 1.068-.268 1.356-.804.288-.536.432-1.38.432-2.532 0-1.144-.144-1.98-.432-2.508-.288-.536-.74-.804-1.356-.804-.616 0-1.068.268-1.356.804-.288.528-.432 1.364-.432 2.508s.144 1.988.432 2.532c.288.536.74.804 1.356.804Zm8.156-.12h1.86V392h-4.944v-1.02h1.848v-5.964l-1.476.9-.528-.924 2.352-1.452h.888v7.44Zm3.379-7.44h5.724v.924L249.142 392h-1.32l3.888-7.44h-4.38v-1.02Zm-84.826 7.44V392h-5.544v-.924l2.916-3.192c.376-.408.648-.78.816-1.116.168-.336.252-.668.252-.996 0-.432-.124-.76-.372-.984-.248-.224-.604-.336-1.068-.336-.792 0-1.576.308-2.352.924l-.432-.912c.336-.312.76-.56 1.272-.744a4.548 4.548 0 0 1 1.548-.276c.808 0 1.448.204 1.92.612.472.4.708.944.708 1.632 0 .488-.108.952-.324 1.392-.208.44-.56.932-1.056 1.476l-2.268 2.424h3.984Zm4.291 1.116c-.984 0-1.736-.368-2.256-1.104-.512-.736-.768-1.808-.768-3.216 0-1.408.256-2.48.768-3.216.52-.744 1.272-1.116 2.256-1.116.984 0 1.732.368 2.244 1.104.52.736.78 1.808.78 3.216 0 1.416-.26 2.492-.78 3.228-.512.736-1.26 1.104-2.244 1.104Zm0-.996c.616 0 1.068-.268 1.356-.804.288-.536.432-1.38.432-2.532 0-1.144-.144-1.98-.432-2.508-.288-.536-.74-.804-1.356-.804-.616 0-1.068.268-1.356.804-.288.528-.432 1.364-.432 2.508s.144 1.988.432 2.532c.288.536.74.804 1.356.804Zm8.156-.12h1.86V392h-4.944v-1.02h1.848v-5.964l-1.476.9-.528-.924 2.352-1.452h.888v7.44Zm6.667-4.344c.512 0 .964.116 1.356.348.4.224.708.54.924.948.224.408.336.876.336 1.404 0 .528-.12 1.004-.36 1.428a2.53 2.53 0 0 1-.984.984c-.424.232-.9.348-1.428.348-1.048 0-1.856-.356-2.424-1.068-.56-.72-.84-1.744-.84-3.072 0-.944.132-1.752.396-2.424.264-.68.648-1.196 1.152-1.548.504-.36 1.104-.54 1.8-.54.496 0 .98.088 1.452.264.472.176.884.428 1.236.756l-.444.912c-.752-.616-1.488-.924-2.208-.924-.688 0-1.22.304-1.596.912-.376.6-.564 1.456-.564 2.568v.036c.176-.416.46-.74.852-.972.4-.24.848-.36 1.344-.36Zm-.216 4.452c.496 0 .892-.156 1.188-.468.296-.32.444-.74.444-1.26s-.152-.936-.456-1.248c-.296-.312-.692-.468-1.188-.468s-.904.16-1.224.48c-.32.312-.48.724-.48 1.236s.156.928.468 1.248c.32.32.736.48 1.248.48Zm-87.898-.108V392H87.96v-.924l2.916-3.192c.376-.408.648-.78.816-1.116.168-.336.252-.668.252-.996 0-.432-.124-.76-.372-.984-.248-.224-.604-.336-1.068-.336-.792 0-1.576.308-2.352.924l-.432-.912c.336-.312.76-.56 1.272-.744a4.548 4.548 0 0 1 1.548-.276c.808 0 1.448.204 1.92.612.472.4.708.944.708 1.632 0 .488-.108.952-.324 1.392-.208.44-.56.932-1.056 1.476l-2.268 2.424h3.984Zm4.291 1.116c-.984 0-1.736-.368-2.256-1.104-.512-.736-.768-1.808-.768-3.216 0-1.408.256-2.48.768-3.216.52-.744 1.272-1.116 2.256-1.116.984 0 1.732.368 2.244 1.104.52.736.78 1.808.78 3.216 0 1.416-.26 2.492-.78 3.228-.512.736-1.26 1.104-2.244 1.104Zm0-.996c.616 0 1.068-.268 1.356-.804.288-.536.432-1.38.432-2.532 0-1.144-.144-1.98-.432-2.508-.288-.536-.74-.804-1.356-.804-.616 0-1.068.268-1.356.804-.288.528-.432 1.364-.432 2.508s.144 1.988.432 2.532c.288.536.74.804 1.356.804Zm8.156-.12h1.86V392h-4.944v-1.02h1.848v-5.964l-1.476.9-.528-.924 2.352-1.452h.888v7.44Zm6.643-4.332c.528 0 .992.112 1.392.336.4.224.708.54.924.948.224.408.336.876.336 1.404 0 .544-.124 1.024-.372 1.44-.24.416-.588.74-1.044.972-.448.224-.972.336-1.572.336-.52 0-1.036-.092-1.548-.276a3.679 3.679 0 0 1-1.26-.744l.432-.912c.76.616 1.556.924 2.388.924.56 0 .996-.148 1.308-.444.312-.304.468-.728.468-1.272 0-.52-.156-.936-.468-1.248-.312-.312-.728-.468-1.248-.468-.744 0-1.356.288-1.836.864h-.792v-4.968h5.184v.996h-3.96v2.664c.44-.368.996-.552 1.668-.552Zm-30.189-19.552c-.984 0-1.736-.368-2.256-1.104-.512-.736-.768-1.808-.768-3.216 0-1.408.256-2.48.768-3.216.52-.744 1.272-1.116 2.256-1.116.984 0 1.732.368 2.244 1.104.52.736.78 1.808.78 3.216 0 1.416-.26 2.492-.78 3.228-.512.736-1.26 1.104-2.244 1.104Zm0-.996c.616 0 1.068-.268 1.356-.804.288-.536.432-1.38.432-2.532 0-1.144-.144-1.98-.432-2.508-.288-.536-.74-.804-1.356-.804-.616 0-1.068.268-1.356.804-.288.528-.432 1.364-.432 2.508s.144 1.988.432 2.532c.288.536.74.804 1.356.804Zm-4.292-59.12V308H72.57v-.924l2.916-3.192c.376-.408.648-.78.816-1.116.168-.336.252-.668.252-.996 0-.432-.124-.76-.372-.984-.248-.224-.604-.336-1.068-.336-.792 0-1.576.308-2.352.924l-.432-.912c.336-.312.76-.56 1.272-.744a4.548 4.548 0 0 1 1.548-.276c.808 0 1.448.204 1.92.612.472.4.708.944.708 1.632 0 .488-.108.952-.324 1.392-.208.44-.56.932-1.056 1.476l-2.268 2.424h3.984Zm4.7-4.332c.528 0 .992.112 1.392.336.4.224.708.54.924.948.224.408.336.876.336 1.404 0 .544-.124 1.024-.372 1.44-.24.416-.588.74-1.044.972-.448.224-.972.336-1.572.336-.52 0-1.036-.092-1.548-.276a3.679 3.679 0 0 1-1.26-.744l.432-.912c.76.616 1.556.924 2.388.924.56 0 .996-.148 1.308-.444.312-.304.468-.728.468-1.272 0-.52-.156-.936-.468-1.248-.312-.312-.728-.468-1.248-.468-.744 0-1.356.288-1.836.864h-.792v-4.968h5.184v.996h-3.96v2.664c.44-.368.996-.552 1.668-.552Zm-7.196-59c.528 0 .992.112 1.392.336.4.224.708.54.924.948.224.408.336.876.336 1.404 0 .544-.124 1.024-.372 1.44-.24.416-.588.74-1.044.972-.448.224-.972.336-1.572.336-.52 0-1.036-.092-1.548-.276a3.679 3.679 0 0 1-1.26-.744l.432-.912c.76.616 1.556.924 2.388.924.56 0 .996-.148 1.308-.444.312-.304.468-.728.468-1.272 0-.52-.156-.936-.468-1.248-.312-.312-.728-.468-1.248-.468-.744 0-1.356.288-1.836.864h-.792v-4.968h5.184v.996h-3.96v2.664c.44-.368.996-.552 1.668-.552Zm6.788 5.448c-.984 0-1.736-.368-2.256-1.104-.512-.736-.768-1.808-.768-3.216 0-1.408.256-2.48.768-3.216.52-.744 1.272-1.116 2.256-1.116.984 0 1.732.368 2.244 1.104.52.736.78 1.808.78 3.216 0 1.416-.26 2.492-.78 3.228-.512.736-1.26 1.104-2.244 1.104Zm0-.996c.616 0 1.068-.268 1.356-.804.288-.536.432-1.38.432-2.532 0-1.144-.144-1.98-.432-2.508-.288-.536-.74-.804-1.356-.804-.616 0-1.068.268-1.356.804-.288.528-.432 1.364-.432 2.508s.144 1.988.432 2.532c.288.536.74.804 1.356.804Zm-10.052-66.56h5.724v.924L74.165 190h-1.32l3.888-7.44h-4.38v-1.02Zm10.46 3.108c.528 0 .992.112 1.392.336.4.224.708.54.924.948.224.408.336.876.336 1.404 0 .544-.124 1.024-.372 1.44-.24.416-.588.74-1.044.972-.448.224-.972.336-1.572.336-.52 0-1.036-.092-1.548-.276a3.679 3.679 0 0 1-1.26-.744l.432-.912c.76.616 1.556.924 2.388.924.56 0 .996-.148 1.308-.444.312-.304.468-.728.468-1.272 0-.52-.156-.936-.468-1.248-.312-.312-.728-.468-1.248-.468-.744 0-1.356.288-1.836.864h-.792v-4.968h5.184v.996h-3.96v2.664c.44-.368.996-.552 1.668-.552ZM68.974 129.98h1.86V131H65.89v-1.02h1.848v-5.964l-1.476.9-.528-.924 2.352-1.452h.888v7.44Zm6.235 1.116c-.984 0-1.736-.368-2.256-1.104-.512-.736-.768-1.808-.768-3.216 0-1.408.256-2.48.768-3.216.52-.744 1.272-1.116 2.256-1.116.984 0 1.732.368 2.244 1.104.52.736.78 1.808.78 3.216 0 1.416-.26 2.492-.78 3.228-.512.736-1.26 1.104-2.244 1.104Zm0-.996c.616 0 1.068-.268 1.356-.804.288-.536.432-1.38.432-2.532 0-1.144-.144-1.98-.432-2.508-.288-.536-.74-.804-1.356-.804-.616 0-1.068.268-1.356.804-.288.528-.432 1.364-.432 2.508s.144 1.988.432 2.532c.288.536.74.804 1.356.804Zm7.196.996c-.984 0-1.736-.368-2.256-1.104-.512-.736-.768-1.808-.768-3.216 0-1.408.256-2.48.768-3.216.52-.744 1.272-1.116 2.256-1.116.984 0 1.732.368 2.244 1.104.52.736.78 1.808.78 3.216 0 1.416-.26 2.492-.78 3.228-.512.736-1.26 1.104-2.244 1.104Zm0-.996c.616 0 1.068-.268 1.356-.804.288-.536.432-1.38.432-2.532 0-1.144-.144-1.98-.432-2.508-.288-.536-.74-.804-1.356-.804-.616 0-1.068.268-1.356.804-.288.528-.432 1.364-.432 2.508s.144 1.988.432 2.532c.288.536.74.804 1.356.804Z"/><path fill="#202224" d="M78.93 89.198c-1.188 0-2.303-.161-3.344-.484-1.041-.323-1.921-.777-2.64-1.364l.946-2.068c.748.572 1.533.99 2.354 1.254a8.94 8.94 0 0 0 2.706.396c1.07 0 1.892-.183 2.464-.55.587-.381.88-.91.88-1.584 0-.587-.271-1.034-.814-1.342-.528-.308-1.415-.601-2.662-.88-1.29-.279-2.34-.601-3.146-.968-.807-.367-1.415-.836-1.826-1.408-.41-.572-.616-1.298-.616-2.178 0-.91.25-1.723.748-2.442.499-.719 1.203-1.276 2.112-1.672.91-.41 1.958-.616 3.146-.616 1.085 0 2.12.169 3.102.506.983.323 1.79.77 2.42 1.342l-.946 2.068c-1.379-1.1-2.904-1.65-4.576-1.65-.997 0-1.79.205-2.376.616-.572.396-.858.953-.858 1.672 0 .601.257 1.063.77 1.386.513.323 1.386.623 2.618.902 1.305.293 2.361.623 3.168.99.821.352 1.445.807 1.87 1.364.44.557.66 1.261.66 2.112 0 .924-.25 1.738-.748 2.442-.484.69-1.195 1.225-2.134 1.606-.924.367-2.017.55-3.278.55Zm13.15-11.22c1.51 0 2.632.367 3.365 1.1.734.733 1.1 1.863 1.1 3.388V89h-2.618v-1.65a2.854 2.854 0 0 1-1.188 1.342c-.528.323-1.144.484-1.848.484a4.317 4.317 0 0 1-1.958-.44 3.483 3.483 0 0 1-1.386-1.21 3.057 3.057 0 0 1-.506-1.716c0-.792.198-1.415.594-1.87.411-.455 1.071-.785 1.98-.99.91-.205 2.164-.308 3.762-.308h.55v-.506c0-.733-.161-1.261-.484-1.584-.308-.323-.828-.484-1.562-.484-.572 0-1.173.103-1.804.308a8.716 8.716 0 0 0-1.826.814l-.77-1.892c.602-.381 1.328-.697 2.178-.946.851-.25 1.658-.374 2.42-.374Zm-.639 9.218c.734 0 1.328-.242 1.782-.726.47-.499.704-1.137.704-1.914v-.462h-.396c-.982 0-1.745.044-2.288.132-.542.088-.931.242-1.166.462-.234.22-.352.52-.352.902 0 .47.162.858.484 1.166.323.293.734.44 1.232.44Zm7.9 1.804V73.49h2.749V89h-2.75Zm15.023-4.884h-7.326c.088.997.389 1.738.902 2.222s1.247.726 2.2.726c1.188 0 2.273-.381 3.256-1.144l.792 1.892c-.499.41-1.129.74-1.892.99a7.124 7.124 0 0 1-2.266.374c-1.76 0-3.153-.499-4.18-1.496-1.012-.997-1.518-2.361-1.518-4.092 0-1.1.22-2.075.66-2.926a4.82 4.82 0 0 1 1.848-1.98c.807-.47 1.716-.704 2.728-.704 1.481 0 2.647.477 3.498 1.43.865.953 1.298 2.266 1.298 3.938v.77Zm-4.73-4.202c-.733 0-1.327.235-1.782.704-.44.47-.711 1.144-.814 2.024h4.972c-.029-.895-.249-1.57-.66-2.024-.411-.47-.983-.704-1.716-.704Zm10.94 9.262a9.413 9.413 0 0 1-2.64-.352c-.792-.235-1.467-.572-2.024-1.012l.77-1.914c1.144.836 2.456 1.254 3.938 1.254.63 0 1.107-.103 1.43-.308.337-.205.506-.499.506-.88 0-.323-.118-.572-.352-.748-.22-.176-.624-.337-1.21-.484l-1.76-.396c-.998-.22-1.738-.58-2.222-1.078-.484-.499-.726-1.144-.726-1.936 0-.66.183-1.24.55-1.738.381-.513.902-.91 1.562-1.188.674-.279 1.452-.418 2.332-.418.762 0 1.496.117 2.2.352a6.123 6.123 0 0 1 1.892.99l-.77 1.87c-1.115-.807-2.23-1.21-3.344-1.21-.602 0-1.071.11-1.408.33-.338.22-.506.528-.506.924 0 .293.102.535.308.726.22.19.564.337 1.034.44l1.826.418c1.07.235 1.855.609 2.354 1.122.498.499.748 1.159.748 1.98 0 .997-.404 1.79-1.21 2.376-.807.587-1.9.88-3.278.88Zm24.79-.176-1.562-3.63h-7.546L134.694 89h-2.86l7.018-15.51h2.31L148.18 89h-2.816Zm-8.184-5.83h5.676l-2.838-6.6-2.838 6.6Zm18.66-5.192c1.291 0 2.251.367 2.882 1.1.631.733.946 1.84.946 3.322V89h-2.75v-6.446c0-.836-.161-1.445-.484-1.826-.308-.381-.799-.572-1.474-.572-.792 0-1.43.25-1.914.748-.469.499-.704 1.166-.704 2.002V89h-2.75V78.242h2.684v1.606a3.723 3.723 0 0 1 1.474-1.386c.616-.323 1.313-.484 2.09-.484Zm11.241 0c1.511 0 2.633.367 3.366 1.1.734.733 1.1 1.863 1.1 3.388V89h-2.618v-1.65a2.85 2.85 0 0 1-1.188 1.342c-.528.323-1.144.484-1.848.484a4.32 4.32 0 0 1-1.958-.44 3.492 3.492 0 0 1-1.386-1.21 3.06 3.06 0 0 1-.506-1.716c0-.792.198-1.415.594-1.87.411-.455 1.071-.785 1.98-.99.91-.205 2.164-.308 3.762-.308h.55v-.506c0-.733-.161-1.261-.484-1.584-.308-.323-.828-.484-1.562-.484a5.83 5.83 0 0 0-1.804.308 8.732 8.732 0 0 0-1.826.814l-.77-1.892c.602-.381 1.328-.697 2.178-.946.851-.25 1.658-.374 2.42-.374Zm-.638 9.218c.734 0 1.328-.242 1.782-.726.47-.499.704-1.137.704-1.914v-.462h-.396c-.982 0-1.745.044-2.288.132-.542.088-.931.242-1.166.462-.234.22-.352.52-.352.902 0 .47.162.858.484 1.166.323.293.734.44 1.232.44ZM174.342 89V73.49h2.75V89h-2.75Zm13.132-10.736h2.706l-6.468 14.696h-2.772l1.958-4.378-4.488-10.318h2.904l3.036 7.59 3.124-7.59Zm9.813 8.844c.323 0 .66-.022 1.012-.066l-.132 2.046c-.44.044-.843.066-1.21.066-1.51 0-2.625-.345-3.344-1.034-.718-.704-1.078-1.745-1.078-3.124V80.31h-2.068v-2.068h2.068V75.03h2.75v3.212h2.838v2.068h-2.838v4.642c0 1.437.668 2.156 2.002 2.156ZM199.909 89V78.242h2.75V89h-2.75Zm-.154-15.752h3.036v2.706h-3.036v-2.706ZM210.4 89.176c-1.129 0-2.112-.227-2.948-.682a4.633 4.633 0 0 1-1.892-1.936c-.44-.836-.66-1.811-.66-2.926 0-1.115.228-2.097.682-2.948a4.92 4.92 0 0 1 1.98-2.002c.851-.47 1.834-.704 2.948-.704.763 0 1.504.125 2.222.374.734.235 1.32.557 1.76.968l-.792 1.936a5.161 5.161 0 0 0-1.452-.836 4.158 4.158 0 0 0-1.496-.286c-.953 0-1.694.3-2.222.902-.528.587-.792 1.437-.792 2.552 0 1.1.264 1.95.792 2.552.528.587 1.269.88 2.222.88.499 0 .998-.095 1.496-.286.514-.19.998-.47 1.452-.836l.792 1.914c-.469.425-1.07.763-1.804 1.012a7.459 7.459 0 0 1-2.288.352Zm9.797 0a9.413 9.413 0 0 1-2.64-.352c-.792-.235-1.467-.572-2.024-1.012l.77-1.914c1.144.836 2.456 1.254 3.938 1.254.63 0 1.107-.103 1.43-.308.337-.205.506-.499.506-.88 0-.323-.118-.572-.352-.748-.22-.176-.624-.337-1.21-.484l-1.76-.396c-.998-.22-1.738-.58-2.222-1.078-.484-.499-.726-1.144-.726-1.936 0-.66.183-1.24.55-1.738.381-.513.902-.91 1.562-1.188.674-.279 1.452-.418 2.332-.418.762 0 1.496.117 2.2.352a6.123 6.123 0 0 1 1.892.99l-.77 1.87c-1.115-.807-2.23-1.21-3.344-1.21-.602 0-1.071.11-1.408.33-.338.22-.506.528-.506.924 0 .293.102.535.308.726.22.19.564.337 1.034.44l1.826.418c1.07.235 1.855.609 2.354 1.122.498.499.748 1.159.748 1.98 0 .997-.404 1.79-1.21 2.376-.807.587-1.9.88-3.278.88Z"/><defs><filter id="a" width="468" height="473" x="0" y="0" color-interpolation-filters="sRGB" filterUnits="userSpaceOnUse"><feFlood flood-opacity="0" result="BackgroundImageFix"/><feColorMatrix in="SourceAlpha" result="hardAlpha" values="0 0 0 0 0 0 0 0 0 0 0 0 0 0 0 0 0 0 127 0"/><feOffset dx="6" dy="6"/><feGaussianBlur stdDeviation="27"/><feColorMatrix values="0 0 0 0 0 0 0 0 0 0 0 0 0 0 0 0 0 0 0.05 0"/><feBlend in2="BackgroundImageFix" result="effect1_dropShadow_202_4766"/><feBlend in="SourceGraphic" in2="effect1_dropShadow_202_4766" result="shape"/></filter></defs></svg>