<svg xmlns:xlink="http://www.w3.org/1999/xlink" xmlns="http://www.w3.org/2000/svg" viewBox="0 0 256 256" focusable="false" color="var(--token-162cc6f1-5b31-4c9d-a955-3d5570248c76, rgb(29, 31, 19))" style="user-select: none; width: 100%; height: 100%; display: inline-block; fill: var(--token-162cc6f1-5b31-4c9d-a955-3d5570248c76, rgb(29, 31, 19)); color: var(--token-162cc6f1-5b31-4c9d-a955-3d5570248c76, rgb(29, 31, 19)); flex-shrink: 0;" width="256"  height="256" ><g color="var(--token-162cc6f1-5b31-4c9d-a955-3d5570248c76, rgb(29, 31, 19))" weight="regular" fill="#1D1F13"><path d="M173.66,98.34a8,8,0,0,1,0,11.32l-56,56a8,8,0,0,1-11.32,0l-24-24a8,8,0,0,1,11.32-11.32L112,148.69l50.34-50.35A8,8,0,0,1,173.66,98.34ZM232,128A104,104,0,1,1,128,24,104.11,104.11,0,0,1,232,128Zm-16,0a88,88,0,1,0-88,88A88.1,88.1,0,0,0,216,128Z" fill="#1D1F13"></path></g></svg>