<svg xmlns:xlink="http://www.w3.org/1999/xlink" xmlns="http://www.w3.org/2000/svg" focusable="false" viewBox="0 0 24 24" color="var(--token-162cc6f1-5b31-4c9d-a955-3d5570248c76, rgb(29, 31, 19))" style="user-select: none; width: 100%; height: 100%; display: inline-block; fill: var(--token-162cc6f1-5b31-4c9d-a955-3d5570248c76, rgb(29, 31, 19)); flex-shrink: 0;" width="35"  height="35" ><path d="M21 12.22C21 6.73 16.74 3 12 3c-4.69 0-9 3.65-9 9.28-.6.34-1 .98-1 1.72v2c0 1.1.9 2 2 2h1v-6.1c0-3.87 3.13-7 7-7s7 3.13 7 7V19h-8v2h8c1.1 0 2-.9 2-2v-1.22c.59-.31 1-.92 1-1.64v-2.3c0-.7-.41-1.31-1-1.62z" fill="#1D1F13"></path><circle cx="9" cy="13" r="1" fill="#1D1F13"></circle><circle cx="15" cy="13" r="1" fill="#1D1F13"></circle><path d="M18 11.03C17.52 8.18 15.04 6 12.05 6c-3.03 0-6.29 2.51-6.03 6.45 2.47-1.01 4.33-3.21 4.86-5.89 1.31 2.63 4 4.44 7.12 4.47z" fill="#1D1F13"></path></svg>