<svg xmlns:xlink="http://www.w3.org/1999/xlink" xmlns="http://www.w3.org/2000/svg" style="width:100%;height:100%" width="32"  height="32" ><defs><svg viewBox="0 0 32 32" id="svg8893836921"><path d="M 13.982 20.563 C 13.788 20.764 13.68 21.034 13.682 21.313 C 13.685 21.593 13.797 21.861 13.995 22.058 C 14.193 22.256 14.46 22.368 14.74 22.371 C 15.02 22.373 15.289 22.266 15.49 22.071 L 21.18 16.361 C 21.229 16.311 21.269 16.252 21.296 16.187 C 21.323 16.123 21.336 16.053 21.336 15.983 C 21.336 15.913 21.323 15.843 21.296 15.779 C 21.269 15.714 21.229 15.655 21.18 15.605 L 15.49 9.897 C 15.289 9.702 15.02 9.595 14.74 9.597 C 14.46 9.6 14.193 9.712 13.995 9.91 C 13.797 10.107 13.685 10.375 13.682 10.655 C 13.68 10.934 13.788 11.204 13.982 11.405 L 17.493 14.933 L 3.2 14.933 C 2.917 14.933 2.646 15.046 2.446 15.246 C 2.246 15.446 2.133 15.717 2.133 16 C 2.133 16.283 2.246 16.554 2.446 16.754 C 2.646 16.954 2.917 17.067 3.2 17.067 L 17.493 17.067 Z M 25.6 2.133 L 11.733 2.133 C 11.45 2.133 11.179 2.246 10.979 2.446 C 10.779 2.646 10.667 2.917 10.667 3.2 C 10.667 3.483 10.779 3.754 10.979 3.954 C 11.179 4.154 11.45 4.267 11.733 4.267 L 24.533 4.267 C 24.816 4.267 25.088 4.379 25.288 4.579 C 25.488 4.779 25.6 5.05 25.6 5.333 L 25.6 26.667 C 25.6 26.95 25.488 27.221 25.288 27.421 C 25.088 27.621 24.816 27.733 24.533 27.733 L 11.2 27.733 C 10.917 27.733 10.646 27.846 10.446 28.046 C 10.246 28.246 10.133 28.517 10.133 28.8 C 10.133 29.083 10.246 29.354 10.446 29.554 C 10.646 29.754 10.917 29.867 11.2 29.867 L 25.6 29.867 C 26.166 29.867 26.708 29.642 27.108 29.242 C 27.509 28.842 27.733 28.299 27.733 27.733 L 27.733 4.267 C 27.733 3.701 27.509 3.158 27.108 2.758 C 26.708 2.358 26.166 2.133 25.6 2.133 Z" fill="#1D1F13"></path></svg></defs><use href="#svg8893836921"></use></svg>